<?xml version="1.0" encoding="UTF-8" standalone="no"?><svg xmlns="http://www.w3.org/2000/svg" xmlns:xlink="http://www.w3.org/1999/xlink" clip-rule="evenodd" stroke-miterlimit="4.00" viewBox="0 0 1024 768"><desc>SVG generated by Keynote</desc><defs></defs><g transform="matrix(1.00, 0.00, -0.00, -1.00, 0.0, 768.0)"><g><clipPath id="clip-672"><path d="M 0.0 768.0 L 1024.0 768.0 L 1024.0 0.0 L 0.0 0.0 Z M 0.0 768.0 "></path></clipPath><g clip-path="url(#clip-672)"><image xlink:href="../../E7AB17DE-3C0D-452E-B40B-ED1A02EDB589/assets/75640688B43322D8ECDD2BA9341C9261.jpeg" width="1024.00" height="768.00" transform="matrix(1.00, 0.00, -0.00, -1.00, 0.0, 768.0)"></image></g></g><path d="M 0.0 0.0 L 980.0 0.0 L 980.0 726.0 L 0.0 726.0 Z M 0.0 0.0 " fill="none" stroke="#83817C" stroke-width="2.00" transform="matrix(1.00, 0.00, 0.00, -1.00, 22.0, 746.0)"></path><g><clipPath id="clip-673"><path d="M 545.0 661.0 L 951.0 661.0 L 951.0 107.0 L 545.0 107.0 Z M 545.0 661.3 "></path></clipPath><g clip-path="url(#clip-673)"><image xlink:href="../../A4F2B42B-E0B6-4D49-97C8-56570B315C07/assets/35C30F54782022B55FBFE5A4E9B18F32.jpeg" width="554.00" height="554.00" transform="matrix(1.00, 0.00, -0.00, -1.00, 471.0, 661.0)"></image></g></g><image xlink:href="../../E7AB17DE-3C0D-452E-B40B-ED1A02EDB589/assets/1C466A730CD3AE09F1B68C334334B71A.png" width="417.00" height="565.00" transform="matrix(1.00, 0.00, -0.00, 1.00, 539.0, 101.3)"></image><text xml:space="preserve" font-family="HelveticaNeue-CondensedBold" font-weight="bold" font-size="65.0" fill="#DEDEDE" transform="matrix(1.00, 0.00, -0.00, -1.00, 108.0, 375.0)">S</text><text xml:space="preserve" font-family="HelveticaNeue-CondensedBold" font-weight="bold" font-size="65.0" fill="#DEDEDE" transform="matrix(1.00, 0.00, -0.00, -1.00, 141.7, 375.0)">E</text><text xml:space="preserve" font-family="HelveticaNeue-CondensedBold" font-weight="bold" font-size="65.0" fill="#DEDEDE" transform="matrix(1.00, 0.00, -0.00, -1.00, 173.0, 375.0)">A</text><text xml:space="preserve" font-family="HelveticaNeue-CondensedBold" font-weight="bold" font-size="65.0" fill="#DEDEDE" transform="matrix(1.00, 0.00, -0.00, -1.00, 209.1, 375.0)">N</text><text xml:space="preserve" font-family="HelveticaNeue-CondensedBold" font-weight="bold" font-size="65.0" fill="#DEDEDE" transform="matrix(1.00, 0.00, -0.00, -1.00, 246.4, 375.0)"> </text><text xml:space="preserve" font-family="HelveticaNeue-CondensedBold" font-weight="bold" font-size="65.0" fill="#DEDEDE" transform="matrix(1.00, 0.00, -0.00, -1.00, 259.6, 375.0)">T</text><text xml:space="preserve" font-family="HelveticaNeue-CondensedBold" font-weight="bold" font-size="65.0" fill="#DEDEDE" transform="matrix(1.00, 0.00, -0.00, -1.00, 284.9, 375.0)">.</text><text xml:space="preserve" font-family="HelveticaNeue-CondensedBold" font-weight="bold" font-size="65.0" fill="#DEDEDE" transform="matrix(1.00, 0.00, -0.00, -1.00, 298.1, 375.0)"> </text><text xml:space="preserve" font-family="HelveticaNeue-CondensedBold" font-weight="bold" font-size="65.0" fill="#DEDEDE" transform="matrix(1.00, 0.00, -0.00, -1.00, 311.3, 375.0)">A</text><text xml:space="preserve" font-family="HelveticaNeue-CondensedBold" font-weight="bold" font-size="65.0" fill="#DEDEDE" transform="matrix(1.00, 0.00, -0.00, -1.00, 347.4, 375.0)">L</text><text xml:space="preserve" font-family="HelveticaNeue-CondensedBold" font-weight="bold" font-size="65.0" fill="#DEDEDE" transform="matrix(1.00, 0.00, -0.00, -1.00, 377.5, 375.0)">L</text><text xml:space="preserve" font-family="HelveticaNeue-CondensedBold" font-weight="bold" font-size="65.0" fill="#DEDEDE" transform="matrix(1.00, 0.00, -0.00, -1.00, 407.6, 375.0)">E</text><text xml:space="preserve" font-family="HelveticaNeue-CondensedBold" font-weight="bold" font-size="65.0" fill="#DEDEDE" transform="matrix(1.00, 0.00, -0.00, -1.00, 438.9, 375.0)">N</text><text xml:space="preserve" font-family="HelveticaNeue-CondensedBold" font-weight="bold" font-size="20.2" fill="#558AAA" transform="matrix(1.00, 0.00, -0.00, -1.00, 130.0, 335.0)">V</text><text xml:space="preserve" font-family="HelveticaNeue-CondensedBold" font-weight="bold" font-size="20.2" fill="#558AAA" transform="matrix(1.00, 0.00, -0.00, -1.00, 140.5, 335.0)">P</text><text xml:space="preserve" font-family="HelveticaNeue-CondensedBold" font-weight="bold" font-size="20.2" fill="#558AAA" transform="matrix(1.00, 0.00, -0.00, -1.00, 150.9, 335.0)"> </text><text xml:space="preserve" font-family="HelveticaNeue-CondensedBold" font-weight="bold" font-size="20.2" fill="#558AAA" transform="matrix(1.00, 0.00, -0.00, -1.00, 155.8, 335.0)">O</text><text xml:space="preserve" font-family="HelveticaNeue-CondensedBold" font-weight="bold" font-size="20.2" fill="#558AAA" transform="matrix(1.00, 0.00, -0.00, -1.00, 167.0, 335.0)">F</text><text xml:space="preserve" font-family="HelveticaNeue-CondensedBold" font-weight="bold" font-size="20.2" fill="#558AAA" transform="matrix(1.00, 0.00, -0.00, -1.00, 176.3, 335.0)"> </text><text xml:space="preserve" font-family="HelveticaNeue-CondensedBold" font-weight="bold" font-size="20.2" fill="#558AAA" transform="matrix(1.00, 0.00, -0.00, -1.00, 181.1, 335.0)">E</text><text xml:space="preserve" font-family="HelveticaNeue-CondensedBold" font-weight="bold" font-size="20.2" fill="#558AAA" transform="matrix(1.00, 0.00, -0.00, -1.00, 190.8, 335.0)">N</text><text xml:space="preserve" font-family="HelveticaNeue-CondensedBold" font-weight="bold" font-size="20.2" fill="#558AAA" transform="matrix(1.00, 0.00, -0.00, -1.00, 202.4, 335.0)">G</text><text xml:space="preserve" font-family="HelveticaNeue-CondensedBold" font-weight="bold" font-size="20.2" fill="#558AAA" transform="matrix(1.00, 0.00, -0.00, -1.00, 213.6, 335.0)">I</text><text xml:space="preserve" font-family="HelveticaNeue-CondensedBold" font-weight="bold" font-size="20.2" fill="#558AAA" transform="matrix(1.00, 0.00, -0.00, -1.00, 218.8, 335.0)">N</text><text xml:space="preserve" font-family="HelveticaNeue-CondensedBold" font-weight="bold" font-size="20.2" fill="#558AAA" transform="matrix(1.00, 0.00, -0.00, -1.00, 230.4, 335.0)">E</text><text xml:space="preserve" font-family="HelveticaNeue-CondensedBold" font-weight="bold" font-size="20.2" fill="#558AAA" transform="matrix(1.00, 0.00, -0.00, -1.00, 240.1, 335.0)">E</text><text xml:space="preserve" font-family="HelveticaNeue-CondensedBold" font-weight="bold" font-size="20.2" fill="#558AAA" transform="matrix(1.00, 0.00, -0.00, -1.00, 249.8, 335.0)">R</text><text xml:space="preserve" font-family="HelveticaNeue-CondensedBold" font-weight="bold" font-size="20.2" fill="#558AAA" transform="matrix(1.00, 0.00, -0.00, -1.00, 261.0, 335.0)">I</text><text xml:space="preserve" font-family="HelveticaNeue-CondensedBold" font-weight="bold" font-size="20.2" fill="#558AAA" transform="matrix(1.00, 0.00, -0.00, -1.00, 266.2, 335.0)">N</text><text xml:space="preserve" font-family="HelveticaNeue-CondensedBold" font-weight="bold" font-size="20.2" fill="#558AAA" transform="matrix(1.00, 0.00, -0.00, -1.00, 277.8, 335.0)">G</text><text xml:space="preserve" font-family="HelveticaNeue-CondensedBold" font-weight="bold" font-size="20.2" fill="#558AAA" transform="matrix(1.00, 0.00, -0.00, -1.00, 289.0, 335.0)"> </text><text xml:space="preserve" font-family="HelveticaNeue-CondensedBold" font-weight="bold" font-size="20.2" fill="#558AAA" transform="matrix(1.00, 0.00, -0.00, -1.00, 293.1, 335.0)">A</text><text xml:space="preserve" font-family="HelveticaNeue-CondensedBold" font-weight="bold" font-size="20.2" fill="#558AAA" transform="matrix(1.00, 0.00, -0.00, -1.00, 303.2, 335.0)">T</text><text xml:space="preserve" font-family="HelveticaNeue-CondensedBold" font-weight="bold" font-size="20.2" fill="#558AAA" transform="matrix(1.00, 0.00, -0.00, -1.00, 312.9, 335.0)"> </text><text xml:space="preserve" font-family="HelveticaNeue-CondensedBold" font-weight="bold" font-size="20.2" fill="#558AAA" transform="matrix(1.00, 0.00, -0.00, -1.00, 316.9, 335.0)">W</text><text xml:space="preserve" font-family="HelveticaNeue-CondensedBold" font-weight="bold" font-size="20.2" fill="#558AAA" transform="matrix(1.00, 0.00, -0.00, -1.00, 331.9, 335.0)">A</text><text xml:space="preserve" font-family="HelveticaNeue-CondensedBold" font-weight="bold" font-size="20.2" fill="#558AAA" transform="matrix(1.00, 0.00, -0.00, -1.00, 343.1, 335.0)">L</text><text xml:space="preserve" font-family="HelveticaNeue-CondensedBold" font-weight="bold" font-size="20.2" fill="#558AAA" transform="matrix(1.00, 0.00, -0.00, -1.00, 352.4, 335.0)">L</text><text xml:space="preserve" font-family="HelveticaNeue-CondensedBold" font-weight="bold" font-size="20.2" fill="#558AAA" transform="matrix(1.00, 0.00, -0.00, -1.00, 361.8, 335.0)">A</text><text xml:space="preserve" font-family="HelveticaNeue-CondensedBold" font-weight="bold" font-size="20.2" fill="#558AAA" transform="matrix(1.00, 0.00, -0.00, -1.00, 373.0, 335.0)">R</text><text xml:space="preserve" font-family="HelveticaNeue-CondensedBold" font-weight="bold" font-size="20.2" fill="#558AAA" transform="matrix(1.00, 0.00, -0.00, -1.00, 384.2, 335.0)">O</text><text xml:space="preserve" font-family="HelveticaNeue-CondensedBold" font-weight="bold" font-size="20.2" fill="#558AAA" transform="matrix(1.00, 0.00, -0.00, -1.00, 395.4, 335.0)">O</text><text xml:space="preserve" font-family="HelveticaNeue-CondensedBold" font-weight="bold" font-size="20.2" fill="#558AAA" transform="matrix(1.00, 0.00, -0.00, -1.00, 406.6, 335.0)"> </text><text xml:space="preserve" font-family="HelveticaNeue-CondensedBold" font-weight="bold" font-size="20.2" fill="#558AAA" transform="matrix(1.00, 0.00, -0.00, -1.00, 411.5, 335.0)">L</text><text xml:space="preserve" font-family="HelveticaNeue-CondensedBold" font-weight="bold" font-size="20.2" fill="#558AAA" transform="matrix(1.00, 0.00, -0.00, -1.00, 420.8, 335.0)">A</text><text xml:space="preserve" font-family="HelveticaNeue-CondensedBold" font-weight="bold" font-size="20.2" fill="#558AAA" transform="matrix(1.00, 0.00, -0.00, -1.00, 432.0, 335.0)">B</text><text xml:space="preserve" font-family="HelveticaNeue-CondensedBold" font-weight="bold" font-size="20.2" fill="#558AAA" transform="matrix(1.00, 0.00, -0.00, -1.00, 443.2, 335.0)">S</text><text xml:space="preserve" font-family="HelveticaNeue-CondensedBold" font-weight="bold" font-size="20.2" fill="#558AAA" transform="matrix(1.00, 0.00, -0.00, -1.00, 453.7, 335.0)"> </text><text xml:space="preserve" font-family="HelveticaNeue-CondensedBold" font-weight="bold" font-size="20.2" fill="#558AAA" transform="matrix(1.00, 0.00, -0.00, -1.00, 153.0, 311.0)">M</text><text xml:space="preserve" font-family="HelveticaNeue-CondensedBold" font-weight="bold" font-size="20.2" fill="#558AAA" transform="matrix(1.00, 0.00, -0.00, -1.00, 167.9, 311.0)">E</text><text xml:space="preserve" font-family="HelveticaNeue-CondensedBold" font-weight="bold" font-size="20.2" fill="#558AAA" transform="matrix(1.00, 0.00, -0.00, -1.00, 177.6, 311.0)">M</text><text xml:space="preserve" font-family="HelveticaNeue-CondensedBold" font-weight="bold" font-size="20.2" fill="#558AAA" transform="matrix(1.00, 0.00, -0.00, -1.00, 192.5, 311.0)">B</text><text xml:space="preserve" font-family="HelveticaNeue-CondensedBold" font-weight="bold" font-size="20.2" fill="#558AAA" transform="matrix(1.00, 0.00, -0.00, -1.00, 203.7, 311.0)">E</text><text xml:space="preserve" font-family="HelveticaNeue-CondensedBold" font-weight="bold" font-size="20.2" fill="#558AAA" transform="matrix(1.00, 0.00, -0.00, -1.00, 213.4, 311.0)">R</text><text xml:space="preserve" font-family="HelveticaNeue-CondensedBold" font-weight="bold" font-size="20.2" fill="#558AAA" transform="matrix(1.00, 0.00, -0.00, -1.00, 224.6, 311.0)"> </text><text xml:space="preserve" font-family="HelveticaNeue-CondensedBold" font-weight="bold" font-size="20.2" fill="#558AAA" transform="matrix(1.00, 0.00, -0.00, -1.00, 229.5, 311.0)">O</text><text xml:space="preserve" font-family="HelveticaNeue-CondensedBold" font-weight="bold" font-size="20.2" fill="#558AAA" transform="matrix(1.00, 0.00, -0.00, -1.00, 240.7, 311.0)">F</text><text xml:space="preserve" font-family="HelveticaNeue-CondensedBold" font-weight="bold" font-size="20.2" fill="#558AAA" transform="matrix(1.00, 0.00, -0.00, -1.00, 250.0, 311.0)"> </text><text xml:space="preserve" font-family="HelveticaNeue-CondensedBold" font-weight="bold" font-size="20.2" fill="#558AAA" transform="matrix(1.00, 0.00, -0.00, -1.00, 254.1, 311.0)">T</text><text xml:space="preserve" font-family="HelveticaNeue-CondensedBold" font-weight="bold" font-size="20.2" fill="#558AAA" transform="matrix(1.00, 0.00, -0.00, -1.00, 263.8, 311.0)">H</text><text xml:space="preserve" font-family="HelveticaNeue-CondensedBold" font-weight="bold" font-size="20.2" fill="#558AAA" transform="matrix(1.00, 0.00, -0.00, -1.00, 275.0, 311.0)">E</text><text xml:space="preserve" font-family="HelveticaNeue-CondensedBold" font-weight="bold" font-size="20.2" fill="#558AAA" transform="matrix(1.00, 0.00, -0.00, -1.00, 284.7, 311.0)"> </text><text xml:space="preserve" font-family="HelveticaNeue-CondensedBold" font-weight="bold" font-size="20.2" fill="#558AAA" transform="matrix(1.00, 0.00, -0.00, -1.00, 289.5, 311.0)">P</text><text xml:space="preserve" font-family="HelveticaNeue-CondensedBold" font-weight="bold" font-size="20.2" fill="#558AAA" transform="matrix(1.00, 0.00, -0.00, -1.00, 300.0, 311.0)">O</text><text xml:space="preserve" font-family="HelveticaNeue-CondensedBold" font-weight="bold" font-size="20.2" fill="#558AAA" transform="matrix(1.00, 0.00, -0.00, -1.00, 311.2, 311.0)">N</text><text xml:space="preserve" font-family="HelveticaNeue-CondensedBold" font-weight="bold" font-size="20.2" fill="#558AAA" transform="matrix(1.00, 0.00, -0.00, -1.00, 322.8, 311.0)">Y</text><text xml:space="preserve" font-family="HelveticaNeue-CondensedBold" font-weight="bold" font-size="20.2" fill="#558AAA" transform="matrix(1.00, 0.00, -0.00, -1.00, 333.3, 311.0)"> </text><text xml:space="preserve" font-family="HelveticaNeue-CondensedBold" font-weight="bold" font-size="20.2" fill="#558AAA" transform="matrix(1.00, 0.00, -0.00, -1.00, 338.1, 311.0)">C</text><text xml:space="preserve" font-family="HelveticaNeue-CondensedBold" font-weight="bold" font-size="20.2" fill="#558AAA" transform="matrix(1.00, 0.00, -0.00, -1.00, 348.9, 311.0)">O</text><text xml:space="preserve" font-family="HelveticaNeue-CondensedBold" font-weight="bold" font-size="20.2" fill="#558AAA" transform="matrix(1.00, 0.00, -0.00, -1.00, 360.1, 311.0)">R</text><text xml:space="preserve" font-family="HelveticaNeue-CondensedBold" font-weight="bold" font-size="20.2" fill="#558AAA" transform="matrix(1.00, 0.00, -0.00, -1.00, 371.4, 311.0)">E</text><text xml:space="preserve" font-family="HelveticaNeue-CondensedBold" font-weight="bold" font-size="20.2" fill="#558AAA" transform="matrix(1.00, 0.00, -0.00, -1.00, 381.0, 311.0)"> </text><text xml:space="preserve" font-family="HelveticaNeue-CondensedBold" font-weight="bold" font-size="20.2" fill="#558AAA" transform="matrix(1.00, 0.00, -0.00, -1.00, 385.1, 311.0)">T</text><text xml:space="preserve" font-family="HelveticaNeue-CondensedBold" font-weight="bold" font-size="20.2" fill="#558AAA" transform="matrix(1.00, 0.00, -0.00, -1.00, 394.8, 311.0)">E</text><text xml:space="preserve" font-family="HelveticaNeue-CondensedBold" font-weight="bold" font-size="20.2" fill="#558AAA" transform="matrix(1.00, 0.00, -0.00, -1.00, 404.5, 311.0)">A</text><text xml:space="preserve" font-family="HelveticaNeue-CondensedBold" font-weight="bold" font-size="20.2" fill="#558AAA" transform="matrix(1.00, 0.00, -0.00, -1.00, 415.7, 311.0)">M</text><text xml:space="preserve" font-family="HelveticaNeue-CondensedBold" font-weight="bold" font-size="20.2" fill="#558AAA" transform="matrix(1.00, 0.00, -0.00, -1.00, 430.6, 311.0)"> </text><text xml:space="preserve" font-family="HelveticaNeue-CondensedBold" font-weight="bold" font-size="20.2" fill="#558AAA" transform="matrix(1.00, 0.00, -0.00, -1.00, 171.0, 287.0)">A</text><text xml:space="preserve" font-family="HelveticaNeue-CondensedBold" font-weight="bold" font-size="20.2" fill="#558AAA" transform="matrix(1.00, 0.00, -0.00, -1.00, 182.2, 287.0)">U</text><text xml:space="preserve" font-family="HelveticaNeue-CondensedBold" font-weight="bold" font-size="20.2" fill="#558AAA" transform="matrix(1.00, 0.00, -0.00, -1.00, 193.1, 287.0)">T</text><text xml:space="preserve" font-family="HelveticaNeue-CondensedBold" font-weight="bold" font-size="20.2" fill="#558AAA" transform="matrix(1.00, 0.00, -0.00, -1.00, 202.7, 287.0)">H</text><text xml:space="preserve" font-family="HelveticaNeue-CondensedBold" font-weight="bold" font-size="20.2" fill="#558AAA" transform="matrix(1.00, 0.00, -0.00, -1.00, 213.9, 287.0)">O</text><text xml:space="preserve" font-family="HelveticaNeue-CondensedBold" font-weight="bold" font-size="20.2" fill="#558AAA" transform="matrix(1.00, 0.00, -0.00, -1.00, 225.1, 287.0)">R</text><text xml:space="preserve" font-family="HelveticaNeue-CondensedBold" font-weight="bold" font-size="20.2" fill="#558AAA" transform="matrix(1.00, 0.00, -0.00, -1.00, 236.4, 287.0)"> </text><text xml:space="preserve" font-family="HelveticaNeue-CondensedBold" font-weight="bold" font-size="20.2" fill="#558AAA" transform="matrix(1.00, 0.00, -0.00, -1.00, 241.2, 287.0)">O</text><text xml:space="preserve" font-family="HelveticaNeue-CondensedBold" font-weight="bold" font-size="20.2" fill="#558AAA" transform="matrix(1.00, 0.00, -0.00, -1.00, 252.4, 287.0)">F</text><text xml:space="preserve" font-family="HelveticaNeue-CondensedBold" font-weight="bold" font-size="20.2" fill="#558AAA" transform="matrix(1.00, 0.00, -0.00, -1.00, 261.7, 287.0)"> </text><text xml:space="preserve" font-family="HelveticaNeue-CondensedBold" font-weight="bold" font-size="20.2" fill="#558AAA" transform="matrix(1.00, 0.00, -0.00, -1.00, 265.8, 287.0)">“</text><text xml:space="preserve" font-family="HelveticaNeue-CondensedBold" font-weight="bold" font-size="20.2" fill="#558AAA" transform="matrix(1.00, 0.00, -0.00, -1.00, 275.2, 287.0)">S</text><text xml:space="preserve" font-family="HelveticaNeue-CondensedBold" font-weight="bold" font-size="20.2" fill="#558AAA" transform="matrix(1.00, 0.00, -0.00, -1.00, 285.6, 287.0)">T</text><text xml:space="preserve" font-family="HelveticaNeue-CondensedBold" font-weight="bold" font-size="20.2" fill="#558AAA" transform="matrix(1.00, 0.00, -0.00, -1.00, 295.3, 287.0)">O</text><text xml:space="preserve" font-family="HelveticaNeue-CondensedBold" font-weight="bold" font-size="20.2" fill="#558AAA" transform="matrix(1.00, 0.00, -0.00, -1.00, 306.5, 287.0)">R</text><text xml:space="preserve" font-family="HelveticaNeue-CondensedBold" font-weight="bold" font-size="20.2" fill="#558AAA" transform="matrix(1.00, 0.00, -0.00, -1.00, 317.7, 287.0)">M</text><text xml:space="preserve" font-family="HelveticaNeue-CondensedBold" font-weight="bold" font-size="20.2" fill="#558AAA" transform="matrix(1.00, 0.00, -0.00, -1.00, 332.6, 287.0)"> </text><text xml:space="preserve" font-family="HelveticaNeue-CondensedBold" font-weight="bold" font-size="20.2" fill="#558AAA" transform="matrix(1.00, 0.00, -0.00, -1.00, 336.7, 287.0)">A</text><text xml:space="preserve" font-family="HelveticaNeue-CondensedBold" font-weight="bold" font-size="20.2" fill="#558AAA" transform="matrix(1.00, 0.00, -0.00, -1.00, 347.9, 287.0)">P</text><text xml:space="preserve" font-family="HelveticaNeue-CondensedBold" font-weight="bold" font-size="20.2" fill="#558AAA" transform="matrix(1.00, 0.00, -0.00, -1.00, 358.4, 287.0)">P</text><text xml:space="preserve" font-family="HelveticaNeue-CondensedBold" font-weight="bold" font-size="20.2" fill="#558AAA" transform="matrix(1.00, 0.00, -0.00, -1.00, 368.9, 287.0)">L</text><text xml:space="preserve" font-family="HelveticaNeue-CondensedBold" font-weight="bold" font-size="20.2" fill="#558AAA" transform="matrix(1.00, 0.00, -0.00, -1.00, 378.2, 287.0)">I</text><text xml:space="preserve" font-family="HelveticaNeue-CondensedBold" font-weight="bold" font-size="20.2" fill="#558AAA" transform="matrix(1.00, 0.00, -0.00, -1.00, 383.4, 287.0)">E</text><text xml:space="preserve" font-family="HelveticaNeue-CondensedBold" font-weight="bold" font-size="20.2" fill="#558AAA" transform="matrix(1.00, 0.00, -0.00, -1.00, 393.1, 287.0)">D</text><text xml:space="preserve" font-family="HelveticaNeue-CondensedBold" font-weight="bold" font-size="20.2" fill="#558AAA" transform="matrix(1.00, 0.00, -0.00, -1.00, 404.7, 287.0)">”</text><text xml:space="preserve" font-family="HelveticaNeue-CondensedBold" font-weight="bold" font-size="20.2" fill="#558AAA" transform="matrix(1.00, 0.00, -0.00, -1.00, 413.3, 287.0)"> </text><text xml:space="preserve" font-family="HelveticaNeue-CondensedBold" font-weight="bold" font-size="20.2" fill="#558AAA" transform="matrix(1.00, 0.00, -0.00, -1.00, 168.0, 263.0)">L</text><text xml:space="preserve" font-family="HelveticaNeue-CondensedBold" font-weight="bold" font-size="20.2" fill="#558AAA" transform="matrix(1.00, 0.00, -0.00, -1.00, 177.3, 263.0)">O</text><text xml:space="preserve" font-family="HelveticaNeue-CondensedBold" font-weight="bold" font-size="20.2" fill="#558AAA" transform="matrix(1.00, 0.00, -0.00, -1.00, 188.5, 263.0)">V</text><text xml:space="preserve" font-family="HelveticaNeue-CondensedBold" font-weight="bold" font-size="20.2" fill="#558AAA" transform="matrix(1.00, 0.00, -0.00, -1.00, 199.0, 263.0)">E</text><text xml:space="preserve" font-family="HelveticaNeue-CondensedBold" font-weight="bold" font-size="20.2" fill="#558AAA" transform="matrix(1.00, 0.00, -0.00, -1.00, 208.7, 263.0)">R</text><text xml:space="preserve" font-family="HelveticaNeue-CondensedBold" font-weight="bold" font-size="20.2" fill="#558AAA" transform="matrix(1.00, 0.00, -0.00, -1.00, 219.9, 263.0)"> </text><text xml:space="preserve" font-family="HelveticaNeue-CondensedBold" font-weight="bold" font-size="20.2" fill="#558AAA" transform="matrix(1.00, 0.00, -0.00, -1.00, 224.8, 263.0)">O</text><text xml:space="preserve" font-family="HelveticaNeue-CondensedBold" font-weight="bold" font-size="20.2" fill="#558AAA" transform="matrix(1.00, 0.00, -0.00, -1.00, 236.0, 263.0)">F</text><text xml:space="preserve" font-family="HelveticaNeue-CondensedBold" font-weight="bold" font-size="20.2" fill="#558AAA" transform="matrix(1.00, 0.00, -0.00, -1.00, 245.3, 263.0)"> </text><text xml:space="preserve" font-family="HelveticaNeue-CondensedBold" font-weight="bold" font-size="20.2" fill="#558AAA" transform="matrix(1.00, 0.00, -0.00, -1.00, 250.1, 263.0)">F</text><text xml:space="preserve" font-family="HelveticaNeue-CondensedBold" font-weight="bold" font-size="20.2" fill="#558AAA" transform="matrix(1.00, 0.00, -0.00, -1.00, 259.5, 263.0)">R</text><text xml:space="preserve" font-family="HelveticaNeue-CondensedBold" font-weight="bold" font-size="20.2" fill="#558AAA" transform="matrix(1.00, 0.00, -0.00, -1.00, 270.7, 263.0)">E</text><text xml:space="preserve" font-family="HelveticaNeue-CondensedBold" font-weight="bold" font-size="20.2" fill="#558AAA" transform="matrix(1.00, 0.00, -0.00, -1.00, 280.4, 263.0)">N</text><text xml:space="preserve" font-family="HelveticaNeue-CondensedBold" font-weight="bold" font-size="20.2" fill="#558AAA" transform="matrix(1.00, 0.00, -0.00, -1.00, 291.9, 263.0)">C</text><text xml:space="preserve" font-family="HelveticaNeue-CondensedBold" font-weight="bold" font-size="20.2" fill="#558AAA" transform="matrix(1.00, 0.00, -0.00, -1.00, 302.8, 263.0)">H</text><text xml:space="preserve" font-family="HelveticaNeue-CondensedBold" font-weight="bold" font-size="20.2" fill="#558AAA" transform="matrix(1.00, 0.00, -0.00, -1.00, 314.0, 263.0)"> </text><text xml:space="preserve" font-family="HelveticaNeue-CondensedBold" font-weight="bold" font-size="20.2" fill="#558AAA" transform="matrix(1.00, 0.00, -0.00, -1.00, 318.8, 263.0)">S</text><text xml:space="preserve" font-family="HelveticaNeue-CondensedBold" font-weight="bold" font-size="20.2" fill="#558AAA" transform="matrix(1.00, 0.00, -0.00, -1.00, 329.3, 263.0)">T</text><text xml:space="preserve" font-family="HelveticaNeue-CondensedBold" font-weight="bold" font-size="20.2" fill="#558AAA" transform="matrix(1.00, 0.00, -0.00, -1.00, 339.0, 263.0)">R</text><text xml:space="preserve" font-family="HelveticaNeue-CondensedBold" font-weight="bold" font-size="20.2" fill="#558AAA" transform="matrix(1.00, 0.00, -0.00, -1.00, 350.2, 263.0)">E</text><text xml:space="preserve" font-family="HelveticaNeue-CondensedBold" font-weight="bold" font-size="20.2" fill="#558AAA" transform="matrix(1.00, 0.00, -0.00, -1.00, 359.9, 263.0)">E</text><text xml:space="preserve" font-family="HelveticaNeue-CondensedBold" font-weight="bold" font-size="20.2" fill="#558AAA" transform="matrix(1.00, 0.00, -0.00, -1.00, 369.6, 263.0)">T</text><text xml:space="preserve" font-family="HelveticaNeue-CondensedBold" font-weight="bold" font-size="20.2" fill="#558AAA" transform="matrix(1.00, 0.00, -0.00, -1.00, 379.2, 263.0)"> </text><text xml:space="preserve" font-family="HelveticaNeue-CondensedBold" font-weight="bold" font-size="20.2" fill="#558AAA" transform="matrix(1.00, 0.00, -0.00, -1.00, 383.3, 263.0)">A</text><text xml:space="preserve" font-family="HelveticaNeue-CondensedBold" font-weight="bold" font-size="20.2" fill="#558AAA" transform="matrix(1.00, 0.00, -0.00, -1.00, 394.5, 263.0)">R</text><text xml:space="preserve" font-family="HelveticaNeue-CondensedBold" font-weight="bold" font-size="20.2" fill="#558AAA" transform="matrix(1.00, 0.00, -0.00, -1.00, 405.4, 263.0)">T</text><text xml:space="preserve" font-family="HelveticaNeue-CondensedBold" font-weight="bold" font-size="20.2" fill="#558AAA" transform="matrix(1.00, 0.00, -0.00, -1.00, 415.1, 263.0)"> </text><text xml:space="preserve" font-family="HelveticaNeue-CondensedBold" font-weight="bold" font-size="20.2" fill="#558AAA" transform="matrix(1.00, 0.00, -0.00, -1.00, 233.0, 215.0)">@</text><text xml:space="preserve" font-family="HelveticaNeue-CondensedBold" font-weight="bold" font-size="20.2" fill="#558AAA" transform="matrix(1.00, 0.00, -0.00, -1.00, 249.1, 215.0)">S</text><text xml:space="preserve" font-family="HelveticaNeue-CondensedBold" font-weight="bold" font-size="20.2" fill="#558AAA" transform="matrix(1.00, 0.00, -0.00, -1.00, 259.6, 215.0)">E</text><text xml:space="preserve" font-family="HelveticaNeue-CondensedBold" font-weight="bold" font-size="20.2" fill="#558AAA" transform="matrix(1.00, 0.00, -0.00, -1.00, 269.3, 215.0)">A</text><text xml:space="preserve" font-family="HelveticaNeue-CondensedBold" font-weight="bold" font-size="20.2" fill="#558AAA" transform="matrix(1.00, 0.00, -0.00, -1.00, 280.5, 215.0)">N</text><text xml:space="preserve" font-family="HelveticaNeue-CondensedBold" font-weight="bold" font-size="20.2" fill="#558AAA" transform="matrix(1.00, 0.00, -0.00, -1.00, 292.1, 215.0)">T</text><text xml:space="preserve" font-family="HelveticaNeue-CondensedBold" font-weight="bold" font-size="20.2" fill="#558AAA" transform="matrix(1.00, 0.00, -0.00, -1.00, 300.6, 215.0)">A</text><text xml:space="preserve" font-family="HelveticaNeue-CondensedBold" font-weight="bold" font-size="20.2" fill="#558AAA" transform="matrix(1.00, 0.00, -0.00, -1.00, 311.8, 215.0)">L</text><text xml:space="preserve" font-family="HelveticaNeue-CondensedBold" font-weight="bold" font-size="20.2" fill="#558AAA" transform="matrix(1.00, 0.00, -0.00, -1.00, 321.2, 215.0)">L</text><text xml:space="preserve" font-family="HelveticaNeue-CondensedBold" font-weight="bold" font-size="20.2" fill="#558AAA" transform="matrix(1.00, 0.00, -0.00, -1.00, 330.5, 215.0)">E</text><text xml:space="preserve" font-family="HelveticaNeue-CondensedBold" font-weight="bold" font-size="20.2" fill="#558AAA" transform="matrix(1.00, 0.00, -0.00, -1.00, 340.2, 215.0)">N</text><text xml:space="preserve" font-family="HelveticaNeue-CondensedBold" font-weight="bold" font-size="20.2" fill="#558AAA" transform="matrix(1.00, 0.00, -0.00, -1.00, 351.8, 215.0)"> </text><text xml:space="preserve" font-family="HelveticaNeue-CondensedBold" font-weight="bold" font-size="20.2" fill="#558AAA" transform="matrix(1.00, 0.00, -0.00, -1.00, 218.0, 191.0)">@</text><text xml:space="preserve" font-family="HelveticaNeue-CondensedBold" font-weight="bold" font-size="20.2" fill="#558AAA" transform="matrix(1.00, 0.00, -0.00, -1.00, 234.1, 191.0)">W</text><text xml:space="preserve" font-family="HelveticaNeue-CondensedBold" font-weight="bold" font-size="20.2" fill="#558AAA" transform="matrix(1.00, 0.00, -0.00, -1.00, 249.1, 191.0)">A</text><text xml:space="preserve" font-family="HelveticaNeue-CondensedBold" font-weight="bold" font-size="20.2" fill="#558AAA" transform="matrix(1.00, 0.00, -0.00, -1.00, 260.3, 191.0)">L</text><text xml:space="preserve" font-family="HelveticaNeue-CondensedBold" font-weight="bold" font-size="20.2" fill="#558AAA" transform="matrix(1.00, 0.00, -0.00, -1.00, 269.6, 191.0)">L</text><text xml:space="preserve" font-family="HelveticaNeue-CondensedBold" font-weight="bold" font-size="20.2" fill="#558AAA" transform="matrix(1.00, 0.00, -0.00, -1.00, 279.0, 191.0)">A</text><text xml:space="preserve" font-family="HelveticaNeue-CondensedBold" font-weight="bold" font-size="20.2" fill="#558AAA" transform="matrix(1.00, 0.00, -0.00, -1.00, 290.2, 191.0)">R</text><text xml:space="preserve" font-family="HelveticaNeue-CondensedBold" font-weight="bold" font-size="20.2" fill="#558AAA" transform="matrix(1.00, 0.00, -0.00, -1.00, 301.4, 191.0)">O</text><text xml:space="preserve" font-family="HelveticaNeue-CondensedBold" font-weight="bold" font-size="20.2" fill="#558AAA" transform="matrix(1.00, 0.00, -0.00, -1.00, 312.6, 191.0)">O</text><text xml:space="preserve" font-family="HelveticaNeue-CondensedBold" font-weight="bold" font-size="20.2" fill="#558AAA" transform="matrix(1.00, 0.00, -0.00, -1.00, 323.8, 191.0)">L</text><text xml:space="preserve" font-family="HelveticaNeue-CondensedBold" font-weight="bold" font-size="20.2" fill="#558AAA" transform="matrix(1.00, 0.00, -0.00, -1.00, 333.1, 191.0)">A</text><text xml:space="preserve" font-family="HelveticaNeue-CondensedBold" font-weight="bold" font-size="20.2" fill="#558AAA" transform="matrix(1.00, 0.00, -0.00, -1.00, 344.3, 191.0)">B</text><text xml:space="preserve" font-family="HelveticaNeue-CondensedBold" font-weight="bold" font-size="20.2" fill="#558AAA" transform="matrix(1.00, 0.00, -0.00, -1.00, 355.6, 191.0)">S</text><text xml:space="preserve" font-family="HelveticaNeue-CondensedBold" font-weight="bold" font-size="20.2" fill="#558AAA" transform="matrix(1.00, 0.00, -0.00, -1.00, 366.0, 191.0)"> </text><text xml:space="preserve" font-family="HelveticaNeue-CondensedBold" font-weight="bold" font-size="20.2" fill="#558AAA" transform="matrix(1.00, 0.00, -0.00, -1.00, 240.0, 167.0)">@</text><text xml:space="preserve" font-family="HelveticaNeue-CondensedBold" font-weight="bold" font-size="20.2" fill="#558AAA" transform="matrix(1.00, 0.00, -0.00, -1.00, 256.1, 167.0)">P</text><text xml:space="preserve" font-family="HelveticaNeue-CondensedBold" font-weight="bold" font-size="20.2" fill="#558AAA" transform="matrix(1.00, 0.00, -0.00, -1.00, 266.6, 167.0)">O</text><text xml:space="preserve" font-family="HelveticaNeue-CondensedBold" font-weight="bold" font-size="20.2" fill="#558AAA" transform="matrix(1.00, 0.00, -0.00, -1.00, 277.8, 167.0)">N</text><text xml:space="preserve" font-family="HelveticaNeue-CondensedBold" font-weight="bold" font-size="20.2" fill="#558AAA" transform="matrix(1.00, 0.00, -0.00, -1.00, 289.4, 167.0)">Y</text><text xml:space="preserve" font-family="HelveticaNeue-CondensedBold" font-weight="bold" font-size="20.2" fill="#558AAA" transform="matrix(1.00, 0.00, -0.00, -1.00, 299.9, 167.0)">L</text><text xml:space="preserve" font-family="HelveticaNeue-CondensedBold" font-weight="bold" font-size="20.2" fill="#558AAA" transform="matrix(1.00, 0.00, -0.00, -1.00, 309.2, 167.0)">A</text><text xml:space="preserve" font-family="HelveticaNeue-CondensedBold" font-weight="bold" font-size="20.2" fill="#558AAA" transform="matrix(1.00, 0.00, -0.00, -1.00, 320.4, 167.0)">N</text><text xml:space="preserve" font-family="HelveticaNeue-CondensedBold" font-weight="bold" font-size="20.2" fill="#558AAA" transform="matrix(1.00, 0.00, -0.00, -1.00, 332.0, 167.0)">G</text><text xml:space="preserve" font-family="HelveticaNeue-CondensedBold" font-weight="bold" font-size="20.2" fill="#558AAA" transform="matrix(1.00, 0.00, -0.00, -1.00, 343.2, 167.0)"> </text></g></svg>