<?xml version="1.0" encoding="UTF-8" standalone="no"?><svg xmlns="http://www.w3.org/2000/svg" xmlns:xlink="http://www.w3.org/1999/xlink" clip-rule="evenodd" stroke-miterlimit="4.00" viewBox="0 0 1024 768"><desc>SVG generated by Keynote</desc><defs></defs><g transform="matrix(1.00, 0.00, -0.00, -1.00, 0.0, 768.0)"><g><clipPath id="clip-679"><path d="M 0.0 768.0 L 1024.0 768.0 L 1024.0 0.0 L 0.0 0.0 Z M 0.0 768.0 "></path></clipPath><g clip-path="url(#clip-679)"><image xlink:href="../../E7AB17DE-3C0D-452E-B40B-ED1A02EDB589/assets/75640688B43322D8ECDD2BA9341C9261.jpeg" width="1024.00" height="768.00" transform="matrix(1.00, 0.00, -0.00, -1.00, 0.0, 768.0)"></image></g></g><path d="M 0.0 0.0 L 980.0 0.0 L 980.0 726.0 L 0.0 726.0 Z M 0.0 0.0 " fill="none" stroke="#83817C" stroke-width="2.00" transform="matrix(1.00, 0.00, 0.00, -1.00, 22.0, 746.0)"></path><text xml:space="preserve" font-family="HelveticaNeue-CondensedBold" font-weight="bold" font-size="64.0" fill="#DEDEDE" transform="matrix(1.00, 0.00, -0.00, -1.00, 299.0, 360.0)">S</text><text xml:space="preserve" font-family="HelveticaNeue-CondensedBold" font-weight="bold" font-size="64.0" fill="#DEDEDE" transform="matrix(1.00, 0.00, -0.00, -1.00, 332.2, 360.0)">O</text><text xml:space="preserve" font-family="HelveticaNeue-CondensedBold" font-weight="bold" font-size="64.0" fill="#DEDEDE" transform="matrix(1.00, 0.00, -0.00, -1.00, 367.8, 360.0)">M</text><text xml:space="preserve" font-family="HelveticaNeue-CondensedBold" font-weight="bold" font-size="64.0" fill="#DEDEDE" transform="matrix(1.00, 0.00, -0.00, -1.00, 415.2, 360.0)">E</text><text xml:space="preserve" font-family="HelveticaNeue-CondensedBold" font-weight="bold" font-size="64.0" fill="#DEDEDE" transform="matrix(1.00, 0.00, -0.00, -1.00, 445.9, 360.0)"> </text><text xml:space="preserve" font-family="HelveticaNeue-CondensedBold" font-weight="bold" font-size="64.0" fill="#DEDEDE" transform="matrix(1.00, 0.00, -0.00, -1.00, 458.9, 360.0)">A</text><text xml:space="preserve" font-family="HelveticaNeue-CondensedBold" font-weight="bold" font-size="64.0" fill="#DEDEDE" transform="matrix(1.00, 0.00, -0.00, -1.00, 494.5, 360.0)">X</text><text xml:space="preserve" font-family="HelveticaNeue-CondensedBold" font-weight="bold" font-size="64.0" fill="#DEDEDE" transform="matrix(1.00, 0.00, -0.00, -1.00, 528.9, 360.0)">I</text><text xml:space="preserve" font-family="HelveticaNeue-CondensedBold" font-weight="bold" font-size="64.0" fill="#DEDEDE" transform="matrix(1.00, 0.00, -0.00, -1.00, 545.4, 360.0)">O</text><text xml:space="preserve" font-family="HelveticaNeue-CondensedBold" font-weight="bold" font-size="64.0" fill="#DEDEDE" transform="matrix(1.00, 0.00, -0.00, -1.00, 581.0, 360.0)">M</text><text xml:space="preserve" font-family="HelveticaNeue-CondensedBold" font-weight="bold" font-size="64.0" fill="#DEDEDE" transform="matrix(1.00, 0.00, -0.00, -1.00, 628.3, 360.0)">S</text><text xml:space="preserve" font-family="HelveticaNeue-CondensedBold" font-weight="bold" font-size="64.0" fill="#DEDEDE" transform="matrix(1.00, 0.00, -0.00, -1.00, 661.6, 360.0)">…</text></g></svg>