<?xml version="1.0" encoding="UTF-8" standalone="no"?><svg xmlns="http://www.w3.org/2000/svg" xmlns:xlink="http://www.w3.org/1999/xlink" clip-rule="evenodd" stroke-miterlimit="4.00" viewBox="0 0 1024 768"><desc>SVG generated by Keynote</desc><defs></defs><g transform="matrix(1.00, 0.00, -0.00, -1.00, 0.0, 768.0)"><g><clipPath id="clip-1294"><path d="M 0.0 768.0 L 1024.0 768.0 L 1024.0 0.0 L 0.0 0.0 Z M 0.0 768.0 "></path></clipPath><g clip-path="url(#clip-1294)"><image xlink:href="../../E7AB17DE-3C0D-452E-B40B-ED1A02EDB589/assets/75640688B43322D8ECDD2BA9341C9261.jpeg" width="1024.00" height="768.00" transform="matrix(1.00, 0.00, -0.00, -1.00, 0.0, 768.0)"></image></g></g><path d="M 0.0 0.0 L 980.0 0.0 L 980.0 726.0 L 0.0 726.0 Z M 0.0 0.0 " fill="none" stroke="#83817C" stroke-width="2.00" transform="matrix(1.00, 0.00, 0.00, -1.00, 22.0, 746.0)"></path><g><clipPath id="clip-1295"><path d="M 545.0 661.0 L 951.0 661.0 L 951.0 107.0 L 545.0 107.0 Z M 545.0 661.3 "></path></clipPath><g clip-path="url(#clip-1295)"><image xlink:href="7A1327980B90AC79904A5B59FD5BEDA6.jpeg" width="554.00" height="554.00" transform="matrix(1.00, 0.00, -0.00, -1.00, 471.0, 661.0)"></image></g></g><image xlink:href="../../E7AB17DE-3C0D-452E-B40B-ED1A02EDB589/assets/1C466A730CD3AE09F1B68C334334B71A.png" width="417.00" height="565.00" transform="matrix(1.00, 0.00, -0.00, 1.00, 539.0, 101.3)"></image><text xml:space="preserve" font-family="HelveticaNeue-CondensedBold" font-weight="bold" font-size="65.0" fill="#DEDEDE" transform="matrix(1.00, 0.00, -0.00, -1.00, 86.0, 446.0)">M</text><text xml:space="preserve" font-family="HelveticaNeue-CondensedBold" font-weight="bold" font-size="65.0" fill="#DEDEDE" transform="matrix(1.00, 0.00, -0.00, -1.00, 134.1, 446.0)">E</text><text xml:space="preserve" font-family="HelveticaNeue-CondensedBold" font-weight="bold" font-size="65.0" fill="#DEDEDE" transform="matrix(1.00, 0.00, -0.00, -1.00, 165.4, 446.0)">S</text><text xml:space="preserve" font-family="HelveticaNeue-CondensedBold" font-weight="bold" font-size="65.0" fill="#DEDEDE" transform="matrix(1.00, 0.00, -0.00, -1.00, 199.1, 446.0)">S</text><text xml:space="preserve" font-family="HelveticaNeue-CondensedBold" font-weight="bold" font-size="65.0" fill="#DEDEDE" transform="matrix(1.00, 0.00, -0.00, -1.00, 232.8, 446.0)">A</text><text xml:space="preserve" font-family="HelveticaNeue-CondensedBold" font-weight="bold" font-size="65.0" fill="#DEDEDE" transform="matrix(1.00, 0.00, -0.00, -1.00, 269.0, 446.0)">G</text><text xml:space="preserve" font-family="HelveticaNeue-CondensedBold" font-weight="bold" font-size="65.0" fill="#DEDEDE" transform="matrix(1.00, 0.00, -0.00, -1.00, 305.1, 446.0)">E</text><text xml:space="preserve" font-family="HelveticaNeue-CondensedBold" font-weight="bold" font-size="65.0" fill="#DEDEDE" transform="matrix(1.00, 0.00, -0.00, -1.00, 336.4, 446.0)"> </text><text xml:space="preserve" font-family="HelveticaNeue-CondensedBold" font-weight="bold" font-size="65.0" fill="#DEDEDE" transform="matrix(1.00, 0.00, -0.00, -1.00, 86.0, 376.0)">O</text><text xml:space="preserve" font-family="HelveticaNeue-CondensedBold" font-weight="bold" font-size="65.0" fill="#DEDEDE" transform="matrix(1.00, 0.00, -0.00, -1.00, 122.1, 376.0)">R</text><text xml:space="preserve" font-family="HelveticaNeue-CondensedBold" font-weight="bold" font-size="65.0" fill="#DEDEDE" transform="matrix(1.00, 0.00, -0.00, -1.00, 158.3, 376.0)">D</text><text xml:space="preserve" font-family="HelveticaNeue-CondensedBold" font-weight="bold" font-size="65.0" fill="#DEDEDE" transform="matrix(1.00, 0.00, -0.00, -1.00, 195.6, 376.0)">E</text><text xml:space="preserve" font-family="HelveticaNeue-CondensedBold" font-weight="bold" font-size="65.0" fill="#DEDEDE" transform="matrix(1.00, 0.00, -0.00, -1.00, 226.9, 376.0)">R</text><text xml:space="preserve" font-family="HelveticaNeue-CondensedBold" font-weight="bold" font-size="65.0" fill="#DEDEDE" transform="matrix(1.00, 0.00, -0.00, -1.00, 263.0, 376.0)">I</text><text xml:space="preserve" font-family="HelveticaNeue-CondensedBold" font-weight="bold" font-size="65.0" fill="#DEDEDE" transform="matrix(1.00, 0.00, -0.00, -1.00, 279.8, 376.0)">N</text><text xml:space="preserve" font-family="HelveticaNeue-CondensedBold" font-weight="bold" font-size="65.0" fill="#DEDEDE" transform="matrix(1.00, 0.00, -0.00, -1.00, 317.1, 376.0)">G</text><text xml:space="preserve" font-family="HelveticaNeue-CondensedBold" font-weight="bold" font-size="36.0" fill="#558AAA" transform="matrix(1.00, 0.00, -0.00, -1.00, 86.0, 319.0)">W</text><text xml:space="preserve" font-family="HelveticaNeue-CondensedBold" font-weight="bold" font-size="36.0" fill="#558AAA" transform="matrix(1.00, 0.00, -0.00, -1.00, 113.4, 319.0)">I</text><text xml:space="preserve" font-family="HelveticaNeue-CondensedBold" font-weight="bold" font-size="36.0" fill="#558AAA" transform="matrix(1.00, 0.00, -0.00, -1.00, 122.6, 319.0)">L</text><text xml:space="preserve" font-family="HelveticaNeue-CondensedBold" font-weight="bold" font-size="36.0" fill="#558AAA" transform="matrix(1.00, 0.00, -0.00, -1.00, 139.3, 319.0)">L</text><text xml:space="preserve" font-family="HelveticaNeue-CondensedBold" font-weight="bold" font-size="36.0" fill="#558AAA" transform="matrix(1.00, 0.00, -0.00, -1.00, 156.0, 319.0)"> </text><text xml:space="preserve" font-family="HelveticaNeue-CondensedBold" font-weight="bold" font-size="36.0" fill="#558AAA" transform="matrix(1.00, 0.00, -0.00, -1.00, 163.3, 319.0)">Y</text><text xml:space="preserve" font-family="HelveticaNeue-CondensedBold" font-weight="bold" font-size="36.0" fill="#558AAA" transform="matrix(1.00, 0.00, -0.00, -1.00, 182.0, 319.0)">O</text><text xml:space="preserve" font-family="HelveticaNeue-CondensedBold" font-weight="bold" font-size="36.0" fill="#558AAA" transform="matrix(1.00, 0.00, -0.00, -1.00, 202.0, 319.0)">U</text><text xml:space="preserve" font-family="HelveticaNeue-CondensedBold" font-weight="bold" font-size="36.0" fill="#558AAA" transform="matrix(1.00, 0.00, -0.00, -1.00, 221.4, 319.0)"> </text><text xml:space="preserve" font-family="HelveticaNeue-CondensedBold" font-weight="bold" font-size="36.0" fill="#558AAA" transform="matrix(1.00, 0.00, -0.00, -1.00, 230.0, 319.0)">M</text><text xml:space="preserve" font-family="HelveticaNeue-CondensedBold" font-weight="bold" font-size="36.0" fill="#558AAA" transform="matrix(1.00, 0.00, -0.00, -1.00, 256.7, 319.0)">A</text><text xml:space="preserve" font-family="HelveticaNeue-CondensedBold" font-weight="bold" font-size="36.0" fill="#558AAA" transform="matrix(1.00, 0.00, -0.00, -1.00, 276.7, 319.0)">I</text><text xml:space="preserve" font-family="HelveticaNeue-CondensedBold" font-weight="bold" font-size="36.0" fill="#558AAA" transform="matrix(1.00, 0.00, -0.00, -1.00, 286.0, 319.0)">N</text><text xml:space="preserve" font-family="HelveticaNeue-CondensedBold" font-weight="bold" font-size="36.0" fill="#558AAA" transform="matrix(1.00, 0.00, -0.00, -1.00, 306.6, 319.0)">T</text><text xml:space="preserve" font-family="HelveticaNeue-CondensedBold" font-weight="bold" font-size="36.0" fill="#558AAA" transform="matrix(1.00, 0.00, -0.00, -1.00, 321.9, 319.0)">A</text><text xml:space="preserve" font-family="HelveticaNeue-CondensedBold" font-weight="bold" font-size="36.0" fill="#558AAA" transform="matrix(1.00, 0.00, -0.00, -1.00, 342.0, 319.0)">I</text><text xml:space="preserve" font-family="HelveticaNeue-CondensedBold" font-weight="bold" font-size="36.0" fill="#558AAA" transform="matrix(1.00, 0.00, -0.00, -1.00, 351.2, 319.0)">N</text><text xml:space="preserve" font-family="HelveticaNeue-CondensedBold" font-weight="bold" font-size="36.0" fill="#558AAA" transform="matrix(1.00, 0.00, -0.00, -1.00, 371.9, 319.0)"> </text><text xml:space="preserve" font-family="HelveticaNeue-CondensedBold" font-weight="bold" font-size="36.0" fill="#558AAA" transform="matrix(1.00, 0.00, -0.00, -1.00, 379.2, 319.0)">T</text><text xml:space="preserve" font-family="HelveticaNeue-CondensedBold" font-weight="bold" font-size="36.0" fill="#558AAA" transform="matrix(1.00, 0.00, -0.00, -1.00, 396.5, 319.0)">H</text><text xml:space="preserve" font-family="HelveticaNeue-CondensedBold" font-weight="bold" font-size="36.0" fill="#558AAA" transform="matrix(1.00, 0.00, -0.00, -1.00, 416.5, 319.0)">E</text><text xml:space="preserve" font-family="HelveticaNeue-CondensedBold" font-weight="bold" font-size="36.0" fill="#558AAA" transform="matrix(1.00, 0.00, -0.00, -1.00, 433.8, 319.0)"> </text><text xml:space="preserve" font-family="HelveticaNeue-CondensedBold" font-weight="bold" font-size="36.0" fill="#558AAA" transform="matrix(1.00, 0.00, -0.00, -1.00, 86.0, 275.0)">O</text><text xml:space="preserve" font-family="HelveticaNeue-CondensedBold" font-weight="bold" font-size="36.0" fill="#558AAA" transform="matrix(1.00, 0.00, -0.00, -1.00, 106.0, 275.0)">R</text><text xml:space="preserve" font-family="HelveticaNeue-CondensedBold" font-weight="bold" font-size="36.0" fill="#558AAA" transform="matrix(1.00, 0.00, -0.00, -1.00, 126.0, 275.0)">D</text><text xml:space="preserve" font-family="HelveticaNeue-CondensedBold" font-weight="bold" font-size="36.0" fill="#558AAA" transform="matrix(1.00, 0.00, -0.00, -1.00, 146.7, 275.0)">E</text><text xml:space="preserve" font-family="HelveticaNeue-CondensedBold" font-weight="bold" font-size="36.0" fill="#558AAA" transform="matrix(1.00, 0.00, -0.00, -1.00, 164.0, 275.0)">R</text><text xml:space="preserve" font-family="HelveticaNeue-CondensedBold" font-weight="bold" font-size="36.0" fill="#558AAA" transform="matrix(1.00, 0.00, -0.00, -1.00, 184.0, 275.0)">I</text><text xml:space="preserve" font-family="HelveticaNeue-CondensedBold" font-weight="bold" font-size="36.0" fill="#558AAA" transform="matrix(1.00, 0.00, -0.00, -1.00, 193.3, 275.0)">N</text><text xml:space="preserve" font-family="HelveticaNeue-CondensedBold" font-weight="bold" font-size="36.0" fill="#558AAA" transform="matrix(1.00, 0.00, -0.00, -1.00, 214.0, 275.0)">G</text><text xml:space="preserve" font-family="HelveticaNeue-CondensedBold" font-weight="bold" font-size="36.0" fill="#558AAA" transform="matrix(1.00, 0.00, -0.00, -1.00, 234.0, 275.0)"> </text><text xml:space="preserve" font-family="HelveticaNeue-CondensedBold" font-weight="bold" font-size="36.0" fill="#558AAA" transform="matrix(1.00, 0.00, -0.00, -1.00, 241.3, 275.0)">A</text><text xml:space="preserve" font-family="HelveticaNeue-CondensedBold" font-weight="bold" font-size="36.0" fill="#558AAA" transform="matrix(1.00, 0.00, -0.00, -1.00, 261.3, 275.0)">S</text><text xml:space="preserve" font-family="HelveticaNeue-CondensedBold" font-weight="bold" font-size="36.0" fill="#558AAA" transform="matrix(1.00, 0.00, -0.00, -1.00, 280.0, 275.0)"> </text><text xml:space="preserve" font-family="HelveticaNeue-CondensedBold" font-weight="bold" font-size="36.0" fill="#558AAA" transform="matrix(1.00, 0.00, -0.00, -1.00, 287.3, 275.0)">Y</text><text xml:space="preserve" font-family="HelveticaNeue-CondensedBold" font-weight="bold" font-size="36.0" fill="#558AAA" transform="matrix(1.00, 0.00, -0.00, -1.00, 306.0, 275.0)">O</text><text xml:space="preserve" font-family="HelveticaNeue-CondensedBold" font-weight="bold" font-size="36.0" fill="#558AAA" transform="matrix(1.00, 0.00, -0.00, -1.00, 326.0, 275.0)">U</text><text xml:space="preserve" font-family="HelveticaNeue-CondensedBold" font-weight="bold" font-size="36.0" fill="#558AAA" transform="matrix(1.00, 0.00, -0.00, -1.00, 345.4, 275.0)"> </text><text xml:space="preserve" font-family="HelveticaNeue-CondensedBold" font-weight="bold" font-size="36.0" fill="#558AAA" transform="matrix(1.00, 0.00, -0.00, -1.00, 354.1, 275.0)">R</text><text xml:space="preserve" font-family="HelveticaNeue-CondensedBold" font-weight="bold" font-size="36.0" fill="#558AAA" transform="matrix(1.00, 0.00, -0.00, -1.00, 374.1, 275.0)">E</text><text xml:space="preserve" font-family="HelveticaNeue-CondensedBold" font-weight="bold" font-size="36.0" fill="#558AAA" transform="matrix(1.00, 0.00, -0.00, -1.00, 391.4, 275.0)">C</text><text xml:space="preserve" font-family="HelveticaNeue-CondensedBold" font-weight="bold" font-size="36.0" fill="#558AAA" transform="matrix(1.00, 0.00, -0.00, -1.00, 410.7, 275.0)">E</text><text xml:space="preserve" font-family="HelveticaNeue-CondensedBold" font-weight="bold" font-size="36.0" fill="#558AAA" transform="matrix(1.00, 0.00, -0.00, -1.00, 428.0, 275.0)">I</text><text xml:space="preserve" font-family="HelveticaNeue-CondensedBold" font-weight="bold" font-size="36.0" fill="#558AAA" transform="matrix(1.00, 0.00, -0.00, -1.00, 437.3, 275.0)">V</text><text xml:space="preserve" font-family="HelveticaNeue-CondensedBold" font-weight="bold" font-size="36.0" fill="#558AAA" transform="matrix(1.00, 0.00, -0.00, -1.00, 456.0, 275.0)">E</text><text xml:space="preserve" font-family="HelveticaNeue-CondensedBold" font-weight="bold" font-size="36.0" fill="#558AAA" transform="matrix(1.00, 0.00, -0.00, -1.00, 473.3, 275.0)">D</text><text xml:space="preserve" font-family="HelveticaNeue-CondensedBold" font-weight="bold" font-size="36.0" fill="#558AAA" transform="matrix(1.00, 0.00, -0.00, -1.00, 494.0, 275.0)"> </text><text xml:space="preserve" font-family="HelveticaNeue-CondensedBold" font-weight="bold" font-size="36.0" fill="#558AAA" transform="matrix(1.00, 0.00, -0.00, -1.00, 86.0, 231.0)">I</text><text xml:space="preserve" font-family="HelveticaNeue-CondensedBold" font-weight="bold" font-size="36.0" fill="#558AAA" transform="matrix(1.00, 0.00, -0.00, -1.00, 95.3, 231.0)">T</text><text xml:space="preserve" font-family="HelveticaNeue-CondensedBold" font-weight="bold" font-size="36.0" fill="#558AAA" transform="matrix(1.00, 0.00, -0.00, -1.00, 112.6, 231.0)">?</text></g></svg>