<?xml version="1.0" encoding="UTF-8" standalone="no"?><svg xmlns="http://www.w3.org/2000/svg" xmlns:xlink="http://www.w3.org/1999/xlink" clip-rule="evenodd" stroke-miterlimit="4.00" viewBox="0 0 1024 768"><desc>SVG generated by Keynote</desc><defs></defs><g transform="matrix(1.00, 0.00, -0.00, -1.00, 0.0, 768.0)"><g><clipPath id="clip-693"><path d="M 0.0 768.0 L 1024.0 768.0 L 1024.0 0.0 L 0.0 0.0 Z M 0.0 768.0 "></path></clipPath><g clip-path="url(#clip-693)"><image xlink:href="../../E7AB17DE-3C0D-452E-B40B-ED1A02EDB589/assets/75640688B43322D8ECDD2BA9341C9261.jpeg" width="1024.00" height="768.00" transform="matrix(1.00, 0.00, -0.00, -1.00, 0.0, 768.0)"></image></g></g><path d="M 0.0 0.0 L 980.0 0.0 L 980.0 726.0 L 0.0 726.0 Z M 0.0 0.0 " fill="none" stroke="#83817C" stroke-width="2.00" transform="matrix(1.00, 0.00, 0.00, -1.00, 22.0, 746.0)"></path><text xml:space="preserve" font-family="HelveticaNeue-CondensedBold" font-weight="bold" font-size="64.0" fill="#DEDEDE" transform="matrix(1.00, 0.00, -0.00, -1.00, 272.0, 360.0)">W</text><text xml:space="preserve" font-family="HelveticaNeue-CondensedBold" font-weight="bold" font-size="64.0" fill="#DEDEDE" transform="matrix(1.00, 0.00, -0.00, -1.00, 320.6, 360.0)">H</text><text xml:space="preserve" font-family="HelveticaNeue-CondensedBold" font-weight="bold" font-size="64.0" fill="#DEDEDE" transform="matrix(1.00, 0.00, -0.00, -1.00, 356.2, 360.0)">A</text><text xml:space="preserve" font-family="HelveticaNeue-CondensedBold" font-weight="bold" font-size="64.0" fill="#DEDEDE" transform="matrix(1.00, 0.00, -0.00, -1.00, 388.3, 360.0)">T</text><text xml:space="preserve" font-family="HelveticaNeue-CondensedBold" font-weight="bold" font-size="64.0" fill="#DEDEDE" transform="matrix(1.00, 0.00, -0.00, -1.00, 419.0, 360.0)"> </text><text xml:space="preserve" font-family="HelveticaNeue-CondensedBold" font-weight="bold" font-size="64.0" fill="#DEDEDE" transform="matrix(1.00, 0.00, -0.00, -1.00, 434.4, 360.0)">I</text><text xml:space="preserve" font-family="HelveticaNeue-CondensedBold" font-weight="bold" font-size="64.0" fill="#DEDEDE" transform="matrix(1.00, 0.00, -0.00, -1.00, 450.9, 360.0)">S</text><text xml:space="preserve" font-family="HelveticaNeue-CondensedBold" font-weight="bold" font-size="64.0" fill="#DEDEDE" transform="matrix(1.00, 0.00, -0.00, -1.00, 484.1, 360.0)"> </text><text xml:space="preserve" font-family="HelveticaNeue-CondensedBold" font-weight="bold" font-size="64.0" fill="#DEDEDE" transform="matrix(1.00, 0.00, -0.00, -1.00, 499.5, 360.0)">S</text><text xml:space="preserve" font-family="HelveticaNeue-CondensedBold" font-weight="bold" font-size="64.0" fill="#DEDEDE" transform="matrix(1.00, 0.00, -0.00, -1.00, 532.7, 360.0)">C</text><text xml:space="preserve" font-family="HelveticaNeue-CondensedBold" font-weight="bold" font-size="64.0" fill="#DEDEDE" transform="matrix(1.00, 0.00, -0.00, -1.00, 567.0, 360.0)">A</text><text xml:space="preserve" font-family="HelveticaNeue-CondensedBold" font-weight="bold" font-size="64.0" fill="#DEDEDE" transform="matrix(1.00, 0.00, -0.00, -1.00, 602.6, 360.0)">L</text><text xml:space="preserve" font-family="HelveticaNeue-CondensedBold" font-weight="bold" font-size="64.0" fill="#DEDEDE" transform="matrix(1.00, 0.00, -0.00, -1.00, 632.3, 360.0)">I</text><text xml:space="preserve" font-family="HelveticaNeue-CondensedBold" font-weight="bold" font-size="64.0" fill="#DEDEDE" transform="matrix(1.00, 0.00, -0.00, -1.00, 648.8, 360.0)">N</text><text xml:space="preserve" font-family="HelveticaNeue-CondensedBold" font-weight="bold" font-size="64.0" fill="#DEDEDE" transform="matrix(1.00, 0.00, -0.00, -1.00, 685.5, 360.0)">G</text><text xml:space="preserve" font-family="HelveticaNeue-CondensedBold" font-weight="bold" font-size="64.0" fill="#DEDEDE" transform="matrix(1.00, 0.00, -0.00, -1.00, 721.1, 360.0)">?</text></g></svg>