<?xml version="1.0" encoding="UTF-8" standalone="no"?><svg xmlns="http://www.w3.org/2000/svg" xmlns:xlink="http://www.w3.org/1999/xlink" clip-rule="evenodd" stroke-miterlimit="4.00" viewBox="0 0 1024 768"><desc>SVG generated by Keynote</desc><defs></defs><g transform="matrix(1.00, 0.00, -0.00, -1.00, 0.0, 768.0)"><g><clipPath id="clip-683"><path d="M 0.0 768.0 L 1024.0 768.0 L 1024.0 0.0 L 0.0 0.0 Z M 0.0 768.0 "></path></clipPath><g clip-path="url(#clip-683)"><image xlink:href="../../E7AB17DE-3C0D-452E-B40B-ED1A02EDB589/assets/75640688B43322D8ECDD2BA9341C9261.jpeg" width="1024.00" height="768.00" transform="matrix(1.00, 0.00, -0.00, -1.00, 0.0, 768.0)"></image></g></g><path d="M 0.0 0.0 L 980.0 0.0 L 980.0 726.0 L 0.0 726.0 Z M 0.0 0.0 " fill="none" stroke="#83817C" stroke-width="2.00" transform="matrix(1.00, 0.00, 0.00, -1.00, 22.0, 746.0)"></path><text xml:space="preserve" font-family="HelveticaNeue-CondensedBold" font-weight="bold" font-size="58.0" fill="#DEDEDE" transform="matrix(1.00, 0.00, -0.00, -1.00, 268.0, 393.0)">T</text><text xml:space="preserve" font-family="HelveticaNeue-CondensedBold" font-weight="bold" font-size="58.0" fill="#DEDEDE" transform="matrix(1.00, 0.00, -0.00, -1.00, 295.8, 393.0)">O</text><text xml:space="preserve" font-family="HelveticaNeue-CondensedBold" font-weight="bold" font-size="58.0" fill="#DEDEDE" transform="matrix(1.00, 0.00, -0.00, -1.00, 328.1, 393.0)"> </text><text xml:space="preserve" font-family="HelveticaNeue-CondensedBold" font-weight="bold" font-size="58.0" fill="#DEDEDE" transform="matrix(1.00, 0.00, -0.00, -1.00, 342.0, 393.0)">S</text><text xml:space="preserve" font-family="HelveticaNeue-CondensedBold" font-weight="bold" font-size="58.0" fill="#DEDEDE" transform="matrix(1.00, 0.00, -0.00, -1.00, 372.1, 393.0)">C</text><text xml:space="preserve" font-family="HelveticaNeue-CondensedBold" font-weight="bold" font-size="58.0" fill="#DEDEDE" transform="matrix(1.00, 0.00, -0.00, -1.00, 403.3, 393.0)">A</text><text xml:space="preserve" font-family="HelveticaNeue-CondensedBold" font-weight="bold" font-size="58.0" fill="#DEDEDE" transform="matrix(1.00, 0.00, -0.00, -1.00, 435.5, 393.0)">L</text><text xml:space="preserve" font-family="HelveticaNeue-CondensedBold" font-weight="bold" font-size="58.0" fill="#DEDEDE" transform="matrix(1.00, 0.00, -0.00, -1.00, 462.4, 393.0)">E</text><text xml:space="preserve" font-family="HelveticaNeue-CondensedBold" font-weight="bold" font-size="58.0" fill="#DEDEDE" transform="matrix(1.00, 0.00, -0.00, -1.00, 490.3, 393.0)"> </text><text xml:space="preserve" font-family="HelveticaNeue-CondensedBold" font-weight="bold" font-size="58.0" fill="#DEDEDE" transform="matrix(1.00, 0.00, -0.00, -1.00, 504.2, 393.0)">I</text><text xml:space="preserve" font-family="HelveticaNeue-CondensedBold" font-weight="bold" font-size="58.0" fill="#DEDEDE" transform="matrix(1.00, 0.00, -0.00, -1.00, 519.1, 393.0)">N</text><text xml:space="preserve" font-family="HelveticaNeue-CondensedBold" font-weight="bold" font-size="58.0" fill="#DEDEDE" transform="matrix(1.00, 0.00, -0.00, -1.00, 552.4, 393.0)">F</text><text xml:space="preserve" font-family="HelveticaNeue-CondensedBold" font-weight="bold" font-size="58.0" fill="#DEDEDE" transform="matrix(1.00, 0.00, -0.00, -1.00, 579.3, 393.0)">I</text><text xml:space="preserve" font-family="HelveticaNeue-CondensedBold" font-weight="bold" font-size="58.0" fill="#DEDEDE" transform="matrix(1.00, 0.00, -0.00, -1.00, 594.2, 393.0)">N</text><text xml:space="preserve" font-family="HelveticaNeue-CondensedBold" font-weight="bold" font-size="58.0" fill="#DEDEDE" transform="matrix(1.00, 0.00, -0.00, -1.00, 627.5, 393.0)">I</text><text xml:space="preserve" font-family="HelveticaNeue-CondensedBold" font-weight="bold" font-size="58.0" fill="#DEDEDE" transform="matrix(1.00, 0.00, -0.00, -1.00, 642.5, 393.0)">T</text><text xml:space="preserve" font-family="HelveticaNeue-CondensedBold" font-weight="bold" font-size="58.0" fill="#DEDEDE" transform="matrix(1.00, 0.00, -0.00, -1.00, 670.3, 393.0)">E</text><text xml:space="preserve" font-family="HelveticaNeue-CondensedBold" font-weight="bold" font-size="58.0" fill="#DEDEDE" transform="matrix(1.00, 0.00, -0.00, -1.00, 698.2, 393.0)">L</text><text xml:space="preserve" font-family="HelveticaNeue-CondensedBold" font-weight="bold" font-size="58.0" fill="#DEDEDE" transform="matrix(1.00, 0.00, -0.00, -1.00, 719.8, 393.0)">Y</text><text xml:space="preserve" font-family="HelveticaNeue-CondensedBold" font-weight="bold" font-size="58.0" fill="#DEDEDE" transform="matrix(1.00, 0.00, -0.00, -1.00, 743.5, 393.0)">,</text><text xml:space="preserve" font-family="HelveticaNeue-CondensedBold" font-weight="bold" font-size="58.0" fill="#DEDEDE" transform="matrix(1.00, 0.00, -0.00, -1.00, 755.3, 393.0)"> </text><text xml:space="preserve" font-family="HelveticaNeue-CondensedBold" font-weight="bold" font-size="58.0" fill="#DEDEDE" transform="matrix(1.00, 0.00, -0.00, -1.00, 769.2, 393.0)"> </text><text xml:space="preserve" font-family="HelveticaNeue-CondensedBold" font-weight="bold" font-size="58.0" fill="#DEDEDE" transform="matrix(1.00, 0.00, -0.00, -1.00, 146.0, 329.0)">W</text><text xml:space="preserve" font-family="HelveticaNeue-CondensedBold" font-weight="bold" font-size="58.0" fill="#DEDEDE" transform="matrix(1.00, 0.00, -0.00, -1.00, 190.1, 329.0)">E</text><text xml:space="preserve" font-family="HelveticaNeue-CondensedBold" font-weight="bold" font-size="58.0" fill="#DEDEDE" transform="matrix(1.00, 0.00, -0.00, -1.00, 218.0, 329.0)"> </text><text xml:space="preserve" font-family="HelveticaNeue-CondensedBold" font-weight="bold" font-size="58.0" fill="#DEDEDE" transform="matrix(1.00, 0.00, -0.00, -1.00, 231.9, 329.0)">M</text><text xml:space="preserve" font-family="HelveticaNeue-CondensedBold" font-weight="bold" font-size="58.0" fill="#DEDEDE" transform="matrix(1.00, 0.00, -0.00, -1.00, 274.8, 329.0)">U</text><text xml:space="preserve" font-family="HelveticaNeue-CondensedBold" font-weight="bold" font-size="58.0" fill="#DEDEDE" transform="matrix(1.00, 0.00, -0.00, -1.00, 306.0, 329.0)">S</text><text xml:space="preserve" font-family="HelveticaNeue-CondensedBold" font-weight="bold" font-size="58.0" fill="#DEDEDE" transform="matrix(1.00, 0.00, -0.00, -1.00, 336.1, 329.0)">T</text><text xml:space="preserve" font-family="HelveticaNeue-CondensedBold" font-weight="bold" font-size="58.0" fill="#DEDEDE" transform="matrix(1.00, 0.00, -0.00, -1.00, 364.0, 329.0)"> </text><text xml:space="preserve" font-family="HelveticaNeue-CondensedBold" font-weight="bold" font-size="58.0" fill="#DEDEDE" transform="matrix(1.00, 0.00, -0.00, -1.00, 375.7, 329.0)">A</text><text xml:space="preserve" font-family="HelveticaNeue-CondensedBold" font-weight="bold" font-size="58.0" fill="#DEDEDE" transform="matrix(1.00, 0.00, -0.00, -1.00, 406.8, 329.0)">V</text><text xml:space="preserve" font-family="HelveticaNeue-CondensedBold" font-weight="bold" font-size="58.0" fill="#DEDEDE" transform="matrix(1.00, 0.00, -0.00, -1.00, 436.9, 329.0)">O</text><text xml:space="preserve" font-family="HelveticaNeue-CondensedBold" font-weight="bold" font-size="58.0" fill="#DEDEDE" transform="matrix(1.00, 0.00, -0.00, -1.00, 469.2, 329.0)">I</text><text xml:space="preserve" font-family="HelveticaNeue-CondensedBold" font-weight="bold" font-size="58.0" fill="#DEDEDE" transform="matrix(1.00, 0.00, -0.00, -1.00, 484.1, 329.0)">D</text><text xml:space="preserve" font-family="HelveticaNeue-CondensedBold" font-weight="bold" font-size="58.0" fill="#DEDEDE" transform="matrix(1.00, 0.00, -0.00, -1.00, 517.4, 329.0)"> </text><text xml:space="preserve" font-family="HelveticaNeue-CondensedBold" font-weight="bold" font-size="58.0" fill="#DEDEDE" transform="matrix(1.00, 0.00, -0.00, -1.00, 531.4, 329.0)">C</text><text xml:space="preserve" font-family="HelveticaNeue-CondensedBold" font-weight="bold" font-size="58.0" fill="#DEDEDE" transform="matrix(1.00, 0.00, -0.00, -1.00, 562.5, 329.0)">O</text><text xml:space="preserve" font-family="HelveticaNeue-CondensedBold" font-weight="bold" font-size="58.0" fill="#DEDEDE" transform="matrix(1.00, 0.00, -0.00, -1.00, 594.7, 329.0)">O</text><text xml:space="preserve" font-family="HelveticaNeue-CondensedBold" font-weight="bold" font-size="58.0" fill="#DEDEDE" transform="matrix(1.00, 0.00, -0.00, -1.00, 627.0, 329.0)">R</text><text xml:space="preserve" font-family="HelveticaNeue-CondensedBold" font-weight="bold" font-size="58.0" fill="#DEDEDE" transform="matrix(1.00, 0.00, -0.00, -1.00, 659.2, 329.0)">D</text><text xml:space="preserve" font-family="HelveticaNeue-CondensedBold" font-weight="bold" font-size="58.0" fill="#DEDEDE" transform="matrix(1.00, 0.00, -0.00, -1.00, 692.5, 329.0)">I</text><text xml:space="preserve" font-family="HelveticaNeue-CondensedBold" font-weight="bold" font-size="58.0" fill="#DEDEDE" transform="matrix(1.00, 0.00, -0.00, -1.00, 707.5, 329.0)">N</text><text xml:space="preserve" font-family="HelveticaNeue-CondensedBold" font-weight="bold" font-size="58.0" fill="#DEDEDE" transform="matrix(1.00, 0.00, -0.00, -1.00, 740.8, 329.0)">A</text><text xml:space="preserve" font-family="HelveticaNeue-CondensedBold" font-weight="bold" font-size="58.0" fill="#DEDEDE" transform="matrix(1.00, 0.00, -0.00, -1.00, 769.8, 329.0)">T</text><text xml:space="preserve" font-family="HelveticaNeue-CondensedBold" font-weight="bold" font-size="58.0" fill="#DEDEDE" transform="matrix(1.00, 0.00, -0.00, -1.00, 797.7, 329.0)">I</text><text xml:space="preserve" font-family="HelveticaNeue-CondensedBold" font-weight="bold" font-size="58.0" fill="#DEDEDE" transform="matrix(1.00, 0.00, -0.00, -1.00, 812.7, 329.0)">O</text><text xml:space="preserve" font-family="HelveticaNeue-CondensedBold" font-weight="bold" font-size="58.0" fill="#DEDEDE" transform="matrix(1.00, 0.00, -0.00, -1.00, 844.9, 329.0)">N</text></g></svg>