<?xml version="1.0" encoding="UTF-8" standalone="no"?><svg xmlns="http://www.w3.org/2000/svg" xmlns:xlink="http://www.w3.org/1999/xlink" clip-rule="evenodd" stroke-miterlimit="4.00" viewBox="0 0 1024 768"><desc>SVG generated by Keynote</desc><defs><pattern id="898F7291-BDC1-4C3A-9F32-F4C2FA29D755" patternUnits="userSpaceOnUse" width="506" height="506" viewBox="0 0 506 506" patternTransform="matrix(0.569170, 0.000000, 0.000000, -0.569170, 297.277900, 635.100200)"><image xlink:href="../../BBCDB6C5-B5BD-42E5-B040-F048B0AEBC8D/assets/4230BBACA6C27AFBED544E65E457AFDB.jpeg" width="506.00" height="506.00"></image></pattern><pattern id="1ABC3F0B-86D7-432C-AA33-10F7C9DFCE9C" patternUnits="userSpaceOnUse" width="506" height="506" viewBox="0 0 506 506" patternTransform="matrix(0.569170, 0.000000, 0.000000, -0.569170, 343.242000, 544.336500)"><image xlink:href="../../BBCDB6C5-B5BD-42E5-B040-F048B0AEBC8D/assets/4230BBACA6C27AFBED544E65E457AFDB.jpeg" width="506.00" height="506.00"></image></pattern><pattern id="9ACF68C4-6CD0-49A3-BE50-EAEFBB95ED37" patternUnits="userSpaceOnUse" width="506" height="506" viewBox="0 0 506 506" patternTransform="matrix(0.569170, 0.000000, 0.000000, -0.569170, 343.242000, 315.115300)"><image xlink:href="../../BBCDB6C5-B5BD-42E5-B040-F048B0AEBC8D/assets/4230BBACA6C27AFBED544E65E457AFDB.jpeg" width="506.00" height="506.00"></image></pattern></defs><g transform="matrix(1.00, 0.00, -0.00, -1.00, 0.0, 768.0)"><g><clipPath id="clip-1226"><path d="M 0.0 768.0 L 1024.0 768.0 L 1024.0 0.0 L 0.0 0.0 Z M 0.0 768.0 "></path></clipPath><g clip-path="url(#clip-1226)"><image xlink:href="../../E7AB17DE-3C0D-452E-B40B-ED1A02EDB589/assets/75640688B43322D8ECDD2BA9341C9261.jpeg" width="1024.00" height="768.00" transform="matrix(1.00, 0.00, -0.00, -1.00, 0.0, 768.0)"></image></g></g><path d="M 0.0 0.0 L 980.0 0.0 L 980.0 726.0 L 0.0 726.0 Z M 0.0 0.0 " fill="none" stroke="#83817C" stroke-width="2.00" transform="matrix(1.00, 0.00, 0.00, -1.00, 22.0, 746.0)"></path><g><clipPath id="clip-1227"><path d="M 390.2 635.1 L 609.5 635.1 C 636.1 635.1 649.7 635.1 664.0 630.5 C 679.7 624.8 692.1 612.4 697.9 596.7 C 702.4 582.4 702.4 568.8 702.4 541.8 L 702.4 223.8 C 702.4 197.2 702.4 183.6 697.9 169.3 C 692.1 153.6 679.7 141.2 664.0 135.5 C 649.7 130.9 636.1 130.9 609.1 130.9 L 390.2 130.9 C 363.5 130.9 350.0 130.9 335.7 135.5 C 319.9 141.2 307.6 153.6 301.8 169.3 C 297.3 183.6 297.3 197.2 297.3 224.2 L 297.3 542.2 C 297.3 568.8 297.3 582.4 301.8 596.7 C 307.6 612.4 319.9 624.8 335.7 630.5 C 350.0 635.1 363.5 635.1 390.6 635.1 Z M 390.2 635.1 "></path></clipPath><g clip-path="url(#clip-1227)"><path d="M 297.3 130.9 L 702.4 130.9 L 702.4 635.1 L 297.3 635.1 Z M 297.3 130.9 " fill="url(#898F7291-BDC1-4C3A-9F32-F4C2FA29D755)"></path><path d="M 297.3 635.1 L 702.4 635.1 L 702.4 130.9 L 297.3 130.9 Z M 297.3 635.1 " fill="#4075C4" fill-opacity="0.50"></path></g></g><g><clipPath id="clip-1228"><path d="M 366.2 544.3 L 633.5 544.3 C 640.1 544.3 643.4 544.3 647.0 543.2 C 650.8 541.8 653.9 538.7 655.3 534.9 C 656.4 531.3 656.4 528.0 656.4 521.3 L 656.4 471.7 C 656.4 465.1 656.4 461.8 655.3 458.2 C 653.9 454.3 650.8 451.3 647.0 449.9 C 643.4 448.7 640.1 448.7 633.4 448.7 L 366.2 448.7 C 359.6 448.7 356.3 448.7 352.7 449.9 C 348.8 451.3 345.8 454.3 344.4 458.2 C 343.2 461.8 343.2 465.1 343.2 471.8 L 343.2 521.4 C 343.2 528.0 343.2 531.3 344.4 534.9 C 345.8 538.7 348.8 541.8 352.7 543.2 C 356.3 544.3 359.6 544.3 366.3 544.3 Z M 366.2 544.3 "></path></clipPath><g clip-path="url(#clip-1228)"><path d="M 343.2 448.7 L 656.4 448.7 L 656.4 544.3 L 343.2 544.3 Z M 343.2 448.7 " fill="url(#1ABC3F0B-86D7-432C-AA33-10F7C9DFCE9C)"></path><path d="M 343.2 544.3 L 656.4 544.3 L 656.4 448.7 L 343.2 448.7 Z M 343.2 544.3 " fill="#B21600" fill-opacity="0.58"></path></g></g><g><clipPath id="clip-1229"><path d="M 338.5 448.7 L 661.2 448.7 L 661.2 544.3 L 338.5 544.3 Z M 338.5 448.7 "></path></clipPath><g clip-path="url(#clip-1229)"><text xml:space="preserve" font-family="HelveticaNeue" font-size="30.0" fill="#DEDEDE" transform="matrix(1.00, 0.00, -0.00, -1.00, 373.0, 485.0)">u</text><text xml:space="preserve" font-family="HelveticaNeue" font-size="30.0" fill="#DEDEDE" transform="matrix(1.00, 0.00, -0.00, -1.00, 389.7, 485.0)">s</text><text xml:space="preserve" font-family="HelveticaNeue" font-size="30.0" fill="#DEDEDE" transform="matrix(1.00, 0.00, -0.00, -1.00, 404.7, 485.0)">e</text><text xml:space="preserve" font-family="HelveticaNeue" font-size="30.0" fill="#DEDEDE" transform="matrix(1.00, 0.00, -0.00, -1.00, 420.8, 485.0)">r</text><text xml:space="preserve" font-family="HelveticaNeue" font-size="30.0" fill="#DEDEDE" transform="matrix(1.00, 0.00, -0.00, -1.00, 430.8, 485.0)"> </text><text xml:space="preserve" font-family="HelveticaNeue" font-size="30.0" fill="#DEDEDE" transform="matrix(1.00, 0.00, -0.00, -1.00, 439.1, 485.0)">s</text><text xml:space="preserve" font-family="HelveticaNeue" font-size="30.0" fill="#DEDEDE" transform="matrix(1.00, 0.00, -0.00, -1.00, 454.1, 485.0)">u</text><text xml:space="preserve" font-family="HelveticaNeue" font-size="30.0" fill="#DEDEDE" transform="matrix(1.00, 0.00, -0.00, -1.00, 470.8, 485.0)">p</text><text xml:space="preserve" font-family="HelveticaNeue" font-size="30.0" fill="#DEDEDE" transform="matrix(1.00, 0.00, -0.00, -1.00, 488.6, 485.0)">p</text><text xml:space="preserve" font-family="HelveticaNeue" font-size="30.0" fill="#DEDEDE" transform="matrix(1.00, 0.00, -0.00, -1.00, 506.4, 485.0)">l</text><text xml:space="preserve" font-family="HelveticaNeue" font-size="30.0" fill="#DEDEDE" transform="matrix(1.00, 0.00, -0.00, -1.00, 513.0, 485.0)">i</text><text xml:space="preserve" font-family="HelveticaNeue" font-size="30.0" fill="#DEDEDE" transform="matrix(1.00, 0.00, -0.00, -1.00, 519.7, 485.0)">e</text><text xml:space="preserve" font-family="HelveticaNeue" font-size="30.0" fill="#DEDEDE" transform="matrix(1.00, 0.00, -0.00, -1.00, 535.8, 485.0)">d</text><text xml:space="preserve" font-family="HelveticaNeue" font-size="30.0" fill="#DEDEDE" transform="matrix(1.00, 0.00, -0.00, -1.00, 553.6, 485.0)"> </text><text xml:space="preserve" font-family="HelveticaNeue" font-size="30.0" fill="#DEDEDE" transform="matrix(1.00, 0.00, -0.00, -1.00, 561.9, 485.0)">l</text><text xml:space="preserve" font-family="HelveticaNeue" font-size="30.0" fill="#DEDEDE" transform="matrix(1.00, 0.00, -0.00, -1.00, 568.6, 485.0)">o</text><text xml:space="preserve" font-family="HelveticaNeue" font-size="30.0" fill="#DEDEDE" transform="matrix(1.00, 0.00, -0.00, -1.00, 585.8, 485.0)">g</text><text xml:space="preserve" font-family="HelveticaNeue" font-size="30.0" fill="#DEDEDE" transform="matrix(1.00, 0.00, -0.00, -1.00, 603.0, 485.0)">i</text><text xml:space="preserve" font-family="HelveticaNeue" font-size="30.0" fill="#DEDEDE" transform="matrix(1.00, 0.00, -0.00, -1.00, 609.7, 485.0)">c</text></g></g><g><clipPath id="clip-1230"><path d="M 366.2 315.1 L 633.5 315.1 C 640.1 315.1 643.4 315.1 647.0 314.0 C 650.8 312.6 653.9 309.5 655.3 305.6 C 656.4 302.1 656.4 298.8 656.4 292.1 L 656.4 242.5 C 656.4 235.9 656.4 232.5 655.3 229.0 C 653.9 225.1 650.8 222.1 647.0 220.7 C 643.4 219.5 640.1 219.5 633.4 219.5 L 366.2 219.5 C 359.6 219.5 356.3 219.5 352.7 220.7 C 348.8 222.1 345.8 225.1 344.4 229.0 C 343.2 232.5 343.2 235.9 343.2 242.6 L 343.2 292.2 C 343.2 298.8 343.2 302.1 344.4 305.6 C 345.8 309.5 348.8 312.6 352.7 314.0 C 356.3 315.1 359.6 315.1 366.3 315.1 Z M 366.2 315.1 "></path></clipPath><g clip-path="url(#clip-1230)"><path d="M 343.2 219.5 L 656.4 219.5 L 656.4 315.1 L 343.2 315.1 Z M 343.2 219.5 " fill="url(#9ACF68C4-6CD0-49A3-BE50-EAEFBB95ED37)"></path><path d="M 343.2 315.1 L 656.4 315.1 L 656.4 219.5 L 343.2 219.5 Z M 343.2 315.1 " fill="#B21600" fill-opacity="0.58"></path></g></g><g><clipPath id="clip-1231"><path d="M 338.5 219.5 L 661.2 219.5 L 661.2 315.1 L 338.5 315.1 Z M 338.5 219.5 "></path></clipPath><g clip-path="url(#clip-1231)"><text xml:space="preserve" font-family="HelveticaNeue" font-size="30.0" fill="#DEDEDE" transform="matrix(1.00, 0.00, -0.00, -1.00, 387.0, 256.0)">W</text><text xml:space="preserve" font-family="HelveticaNeue" font-size="30.0" fill="#DEDEDE" transform="matrix(1.00, 0.00, -0.00, -1.00, 413.7, 256.0)">a</text><text xml:space="preserve" font-family="HelveticaNeue" font-size="30.0" fill="#DEDEDE" transform="matrix(1.00, 0.00, -0.00, -1.00, 429.8, 256.0)">l</text><text xml:space="preserve" font-family="HelveticaNeue" font-size="30.0" fill="#DEDEDE" transform="matrix(1.00, 0.00, -0.00, -1.00, 436.4, 256.0)">l</text><text xml:space="preserve" font-family="HelveticaNeue" font-size="30.0" fill="#DEDEDE" transform="matrix(1.00, 0.00, -0.00, -1.00, 443.1, 256.0)">a</text><text xml:space="preserve" font-family="HelveticaNeue" font-size="30.0" fill="#DEDEDE" transform="matrix(1.00, 0.00, -0.00, -1.00, 459.2, 256.0)">r</text><text xml:space="preserve" font-family="HelveticaNeue" font-size="30.0" fill="#DEDEDE" transform="matrix(1.00, 0.00, -0.00, -1.00, 468.7, 256.0)">o</text><text xml:space="preserve" font-family="HelveticaNeue" font-size="30.0" fill="#DEDEDE" transform="matrix(1.00, 0.00, -0.00, -1.00, 485.9, 256.0)">o</text><text xml:space="preserve" font-family="HelveticaNeue" font-size="30.0" fill="#DEDEDE" transform="matrix(1.00, 0.00, -0.00, -1.00, 503.1, 256.0)"> </text><text xml:space="preserve" font-family="HelveticaNeue" font-size="30.0" fill="#DEDEDE" transform="matrix(1.00, 0.00, -0.00, -1.00, 511.4, 256.0)">r</text><text xml:space="preserve" font-family="HelveticaNeue" font-size="30.0" fill="#DEDEDE" transform="matrix(1.00, 0.00, -0.00, -1.00, 521.4, 256.0)">u</text><text xml:space="preserve" font-family="HelveticaNeue" font-size="30.0" fill="#DEDEDE" transform="matrix(1.00, 0.00, -0.00, -1.00, 538.1, 256.0)">n</text><text xml:space="preserve" font-family="HelveticaNeue" font-size="30.0" fill="#DEDEDE" transform="matrix(1.00, 0.00, -0.00, -1.00, 554.8, 256.0)">t</text><text xml:space="preserve" font-family="HelveticaNeue" font-size="30.0" fill="#DEDEDE" transform="matrix(1.00, 0.00, -0.00, -1.00, 564.2, 256.0)">i</text><text xml:space="preserve" font-family="HelveticaNeue" font-size="30.0" fill="#DEDEDE" transform="matrix(1.00, 0.00, -0.00, -1.00, 570.9, 256.0)">m</text><text xml:space="preserve" font-family="HelveticaNeue" font-size="30.0" fill="#DEDEDE" transform="matrix(1.00, 0.00, -0.00, -1.00, 596.5, 256.0)">e</text></g></g><image xlink:href="../../5DE7A389-9969-45C4-B257-97743B992F6C/assets/CAD354F5E3BC46F19D3DF27507B85CA4.png" width="229.00" height="76.00" transform="matrix(1.00, 0.00, -0.00, -1.00, 386.4, 421.0)" opacity="0.50"></image><g><clipPath id="clip-1232"><path d="M 412.3 417.0 L 587.4 417.0 C 594.0 417.0 597.3 417.0 600.8 415.9 C 604.7 414.5 607.8 411.4 609.2 407.5 C 610.3 404.0 610.3 400.6 610.3 394.0 L 610.3 371.9 C 610.3 365.4 610.3 362.0 609.2 358.5 C 607.8 354.6 604.7 351.5 600.8 350.1 C 597.3 349.0 594.0 349.0 587.3 349.0 L 412.3 349.0 C 405.7 349.0 402.4 349.0 398.8 350.1 C 395.0 351.5 391.9 354.6 390.5 358.5 C 389.4 362.0 389.4 365.4 389.4 372.0 L 389.4 394.1 C 389.4 400.6 389.4 404.0 390.5 407.5 C 391.9 411.4 395.0 414.5 398.8 415.9 C 402.4 417.0 405.7 417.0 412.4 417.0 Z M 412.3 417.0 "></path></clipPath><g clip-path="url(#clip-1232)"><image xlink:href="../../BBCDB6C5-B5BD-42E5-B040-F048B0AEBC8D/assets/4230BBACA6C27AFBED544E65E457AFDB.jpeg" width="506.00" height="506.00" transform="matrix(0.57, 0.00, -0.00, -0.57, 389.4, 417.0)"></image><path d="M 389.4 417.0 L 610.3 417.0 L 610.3 349.0 L 389.4 349.0 Z M 389.4 417.0 " fill="#57A03F" fill-opacity="0.60"></path></g></g><g><clipPath id="clip-1233"><path d="M 384.7 349.0 L 615.0 349.0 L 615.0 417.0 L 384.7 417.0 Z M 384.7 349.0 "></path></clipPath><g clip-path="url(#clip-1233)"><text xml:space="preserve" font-family="HelveticaNeue" font-size="30.0" fill="#DEDEDE" transform="matrix(1.00, 0.00, -0.00, -1.00, 414.0, 372.0)">W</text><text xml:space="preserve" font-family="HelveticaNeue" font-size="30.0" fill="#DEDEDE" transform="matrix(1.00, 0.00, -0.00, -1.00, 440.7, 372.0)">a</text><text xml:space="preserve" font-family="HelveticaNeue" font-size="30.0" fill="#DEDEDE" transform="matrix(1.00, 0.00, -0.00, -1.00, 456.8, 372.0)">l</text><text xml:space="preserve" font-family="HelveticaNeue" font-size="30.0" fill="#DEDEDE" transform="matrix(1.00, 0.00, -0.00, -1.00, 463.4, 372.0)">l</text><text xml:space="preserve" font-family="HelveticaNeue" font-size="30.0" fill="#DEDEDE" transform="matrix(1.00, 0.00, -0.00, -1.00, 470.1, 372.0)">a</text><text xml:space="preserve" font-family="HelveticaNeue" font-size="30.0" fill="#DEDEDE" transform="matrix(1.00, 0.00, -0.00, -1.00, 486.2, 372.0)">r</text><text xml:space="preserve" font-family="HelveticaNeue" font-size="30.0" fill="#DEDEDE" transform="matrix(1.00, 0.00, -0.00, -1.00, 495.7, 372.0)">o</text><text xml:space="preserve" font-family="HelveticaNeue" font-size="30.0" fill="#DEDEDE" transform="matrix(1.00, 0.00, -0.00, -1.00, 512.9, 372.0)">o</text><text xml:space="preserve" font-family="HelveticaNeue" font-size="30.0" fill="#DEDEDE" transform="matrix(1.00, 0.00, -0.00, -1.00, 530.1, 372.0)"> </text><text xml:space="preserve" font-family="HelveticaNeue" font-size="30.0" fill="#DEDEDE" transform="matrix(1.00, 0.00, -0.00, -1.00, 538.4, 372.0)">A</text><text xml:space="preserve" font-family="HelveticaNeue" font-size="30.0" fill="#DEDEDE" transform="matrix(1.00, 0.00, -0.00, -1.00, 557.9, 372.0)">P</text><text xml:space="preserve" font-family="HelveticaNeue" font-size="30.0" fill="#DEDEDE" transform="matrix(1.00, 0.00, -0.00, -1.00, 577.3, 372.0)">I</text></g></g></g></svg>