<?xml version="1.0" encoding="UTF-8" standalone="no"?><svg xmlns="http://www.w3.org/2000/svg" xmlns:xlink="http://www.w3.org/1999/xlink" clip-rule="evenodd" stroke-miterlimit="4.00" viewBox="0 0 1024 768"><desc>SVG generated by Keynote</desc><defs></defs><g transform="matrix(1.00, 0.00, -0.00, -1.00, 0.0, 768.0)"><g><clipPath id="clip-688"><path d="M 0.0 768.0 L 1024.0 768.0 L 1024.0 0.0 L 0.0 0.0 Z M 0.0 768.0 "></path></clipPath><g clip-path="url(#clip-688)"><image xlink:href="../../E7AB17DE-3C0D-452E-B40B-ED1A02EDB589/assets/75640688B43322D8ECDD2BA9341C9261.jpeg" width="1024.00" height="768.00" transform="matrix(1.00, 0.00, -0.00, -1.00, 0.0, 768.0)"></image></g></g><path d="M 0.0 0.0 L 980.0 0.0 L 980.0 726.0 L 0.0 726.0 Z M 0.0 0.0 " fill="none" stroke="#83817C" stroke-width="2.00" transform="matrix(1.00, 0.00, 0.00, -1.00, 22.0, 746.0)"></path><g><clipPath id="clip-689"><path d="M 545.0 661.0 L 951.0 661.0 L 951.0 107.0 L 545.0 107.0 Z M 545.0 661.3 "></path></clipPath><g clip-path="url(#clip-689)"><image xlink:href="418948029E1B082A36398B208829D163.jpeg" width="415.00" height="554.00" transform="matrix(1.00, 0.00, -0.00, -1.00, 540.0, 661.0)"></image></g></g><image xlink:href="../../E7AB17DE-3C0D-452E-B40B-ED1A02EDB589/assets/1C466A730CD3AE09F1B68C334334B71A.png" width="417.00" height="565.00" transform="matrix(1.00, 0.00, -0.00, 1.00, 539.0, 101.3)"></image><text xml:space="preserve" font-family="HelveticaNeue-CondensedBold" font-weight="bold" font-size="65.0" fill="#DEDEDE" transform="matrix(1.00, 0.00, -0.00, -1.00, 86.0, 516.0)">W</text><text xml:space="preserve" font-family="HelveticaNeue-CondensedBold" font-weight="bold" font-size="65.0" fill="#DEDEDE" transform="matrix(1.00, 0.00, -0.00, -1.00, 135.4, 516.0)">E</text><text xml:space="preserve" font-family="HelveticaNeue-CondensedBold" font-weight="bold" font-size="65.0" fill="#DEDEDE" transform="matrix(1.00, 0.00, -0.00, -1.00, 166.7, 516.0)">L</text><text xml:space="preserve" font-family="HelveticaNeue-CondensedBold" font-weight="bold" font-size="65.0" fill="#DEDEDE" transform="matrix(1.00, 0.00, -0.00, -1.00, 196.8, 516.0)">C</text><text xml:space="preserve" font-family="HelveticaNeue-CondensedBold" font-weight="bold" font-size="65.0" fill="#DEDEDE" transform="matrix(1.00, 0.00, -0.00, -1.00, 231.7, 516.0)">O</text><text xml:space="preserve" font-family="HelveticaNeue-CondensedBold" font-weight="bold" font-size="65.0" fill="#DEDEDE" transform="matrix(1.00, 0.00, -0.00, -1.00, 267.8, 516.0)">M</text><text xml:space="preserve" font-family="HelveticaNeue-CondensedBold" font-weight="bold" font-size="65.0" fill="#DEDEDE" transform="matrix(1.00, 0.00, -0.00, -1.00, 315.9, 516.0)">E</text><text xml:space="preserve" font-family="HelveticaNeue-CondensedBold" font-weight="bold" font-size="65.0" fill="#DEDEDE" transform="matrix(1.00, 0.00, -0.00, -1.00, 347.2, 516.0)"> </text><text xml:space="preserve" font-family="HelveticaNeue-CondensedBold" font-weight="bold" font-size="65.0" fill="#DEDEDE" transform="matrix(1.00, 0.00, -0.00, -1.00, 360.4, 516.0)">T</text><text xml:space="preserve" font-family="HelveticaNeue-CondensedBold" font-weight="bold" font-size="65.0" fill="#DEDEDE" transform="matrix(1.00, 0.00, -0.00, -1.00, 391.6, 516.0)">O</text><text xml:space="preserve" font-family="HelveticaNeue-CondensedBold" font-weight="bold" font-size="65.0" fill="#DEDEDE" transform="matrix(1.00, 0.00, -0.00, -1.00, 427.7, 516.0)"> </text><text xml:space="preserve" font-family="HelveticaNeue-CondensedBold" font-weight="bold" font-size="65.0" fill="#DEDEDE" transform="matrix(1.00, 0.00, -0.00, -1.00, 86.0, 446.0)">D</text><text xml:space="preserve" font-family="HelveticaNeue-CondensedBold" font-weight="bold" font-size="65.0" fill="#DEDEDE" transform="matrix(1.00, 0.00, -0.00, -1.00, 123.3, 446.0)">I</text><text xml:space="preserve" font-family="HelveticaNeue-CondensedBold" font-weight="bold" font-size="65.0" fill="#DEDEDE" transform="matrix(1.00, 0.00, -0.00, -1.00, 140.1, 446.0)">S</text><text xml:space="preserve" font-family="HelveticaNeue-CondensedBold" font-weight="bold" font-size="65.0" fill="#DEDEDE" transform="matrix(1.00, 0.00, -0.00, -1.00, 173.8, 446.0)">T</text><text xml:space="preserve" font-family="HelveticaNeue-CondensedBold" font-weight="bold" font-size="65.0" fill="#DEDEDE" transform="matrix(1.00, 0.00, -0.00, -1.00, 205.0, 446.0)">R</text><text xml:space="preserve" font-family="HelveticaNeue-CondensedBold" font-weight="bold" font-size="65.0" fill="#DEDEDE" transform="matrix(1.00, 0.00, -0.00, -1.00, 241.2, 446.0)">I</text><text xml:space="preserve" font-family="HelveticaNeue-CondensedBold" font-weight="bold" font-size="65.0" fill="#DEDEDE" transform="matrix(1.00, 0.00, -0.00, -1.00, 257.9, 446.0)">B</text><text xml:space="preserve" font-family="HelveticaNeue-CondensedBold" font-weight="bold" font-size="65.0" fill="#DEDEDE" transform="matrix(1.00, 0.00, -0.00, -1.00, 294.1, 446.0)">U</text><text xml:space="preserve" font-family="HelveticaNeue-CondensedBold" font-weight="bold" font-size="65.0" fill="#DEDEDE" transform="matrix(1.00, 0.00, -0.00, -1.00, 329.0, 446.0)">T</text><text xml:space="preserve" font-family="HelveticaNeue-CondensedBold" font-weight="bold" font-size="65.0" fill="#DEDEDE" transform="matrix(1.00, 0.00, -0.00, -1.00, 360.2, 446.0)">E</text><text xml:space="preserve" font-family="HelveticaNeue-CondensedBold" font-weight="bold" font-size="65.0" fill="#DEDEDE" transform="matrix(1.00, 0.00, -0.00, -1.00, 391.5, 446.0)">D</text><text xml:space="preserve" font-family="HelveticaNeue-CondensedBold" font-weight="bold" font-size="65.0" fill="#DEDEDE" transform="matrix(1.00, 0.00, -0.00, -1.00, 428.8, 446.0)"> </text><text xml:space="preserve" font-family="HelveticaNeue-CondensedBold" font-weight="bold" font-size="65.0" fill="#DEDEDE" transform="matrix(1.00, 0.00, -0.00, -1.00, 86.0, 375.0)">S</text><text xml:space="preserve" font-family="HelveticaNeue-CondensedBold" font-weight="bold" font-size="65.0" fill="#DEDEDE" transform="matrix(1.00, 0.00, -0.00, -1.00, 119.7, 375.0)">Y</text><text xml:space="preserve" font-family="HelveticaNeue-CondensedBold" font-weight="bold" font-size="65.0" fill="#DEDEDE" transform="matrix(1.00, 0.00, -0.00, -1.00, 153.5, 375.0)">S</text><text xml:space="preserve" font-family="HelveticaNeue-CondensedBold" font-weight="bold" font-size="65.0" fill="#DEDEDE" transform="matrix(1.00, 0.00, -0.00, -1.00, 187.3, 375.0)">T</text><text xml:space="preserve" font-family="HelveticaNeue-CondensedBold" font-weight="bold" font-size="65.0" fill="#DEDEDE" transform="matrix(1.00, 0.00, -0.00, -1.00, 218.5, 375.0)">E</text><text xml:space="preserve" font-family="HelveticaNeue-CondensedBold" font-weight="bold" font-size="65.0" fill="#DEDEDE" transform="matrix(1.00, 0.00, -0.00, -1.00, 249.7, 375.0)">M</text><text xml:space="preserve" font-family="HelveticaNeue-CondensedBold" font-weight="bold" font-size="65.0" fill="#DEDEDE" transform="matrix(1.00, 0.00, -0.00, -1.00, 297.8, 375.0)">S</text><text xml:space="preserve" font-family="HelveticaNeue-CondensedBold" font-weight="bold" font-size="65.0" fill="#DEDEDE" transform="matrix(1.00, 0.00, -0.00, -1.00, 331.6, 375.0)">!</text><text xml:space="preserve" font-family="HelveticaNeue-CondensedBold" font-weight="bold" font-size="36.0" fill="#558AAA" transform="matrix(1.00, 0.00, -0.00, -1.00, 86.0, 319.0)">O</text><text xml:space="preserve" font-family="HelveticaNeue-CondensedBold" font-weight="bold" font-size="36.0" fill="#558AAA" transform="matrix(1.00, 0.00, -0.00, -1.00, 106.0, 319.0)">,</text><text xml:space="preserve" font-family="HelveticaNeue-CondensedBold" font-weight="bold" font-size="36.0" fill="#558AAA" transform="matrix(1.00, 0.00, -0.00, -1.00, 113.3, 319.0)"> </text><text xml:space="preserve" font-family="HelveticaNeue-CondensedBold" font-weight="bold" font-size="36.0" fill="#558AAA" transform="matrix(1.00, 0.00, -0.00, -1.00, 122.0, 319.0)">B</text><text xml:space="preserve" font-family="HelveticaNeue-CondensedBold" font-weight="bold" font-size="36.0" fill="#558AAA" transform="matrix(1.00, 0.00, -0.00, -1.00, 142.0, 319.0)">Y</text><text xml:space="preserve" font-family="HelveticaNeue-CondensedBold" font-weight="bold" font-size="36.0" fill="#558AAA" transform="matrix(1.00, 0.00, -0.00, -1.00, 160.7, 319.0)"> </text><text xml:space="preserve" font-family="HelveticaNeue-CondensedBold" font-weight="bold" font-size="36.0" fill="#558AAA" transform="matrix(1.00, 0.00, -0.00, -1.00, 168.0, 319.0)">T</text><text xml:space="preserve" font-family="HelveticaNeue-CondensedBold" font-weight="bold" font-size="36.0" fill="#558AAA" transform="matrix(1.00, 0.00, -0.00, -1.00, 185.3, 319.0)">H</text><text xml:space="preserve" font-family="HelveticaNeue-CondensedBold" font-weight="bold" font-size="36.0" fill="#558AAA" transform="matrix(1.00, 0.00, -0.00, -1.00, 205.3, 319.0)">E</text><text xml:space="preserve" font-family="HelveticaNeue-CondensedBold" font-weight="bold" font-size="36.0" fill="#558AAA" transform="matrix(1.00, 0.00, -0.00, -1.00, 222.6, 319.0)"> </text><text xml:space="preserve" font-family="HelveticaNeue-CondensedBold" font-weight="bold" font-size="36.0" fill="#558AAA" transform="matrix(1.00, 0.00, -0.00, -1.00, 229.9, 319.0)">W</text><text xml:space="preserve" font-family="HelveticaNeue-CondensedBold" font-weight="bold" font-size="36.0" fill="#558AAA" transform="matrix(1.00, 0.00, -0.00, -1.00, 256.6, 319.0)">A</text><text xml:space="preserve" font-family="HelveticaNeue-CondensedBold" font-weight="bold" font-size="36.0" fill="#558AAA" transform="matrix(1.00, 0.00, -0.00, -1.00, 274.7, 319.0)">Y</text><text xml:space="preserve" font-family="HelveticaNeue-CondensedBold" font-weight="bold" font-size="36.0" fill="#558AAA" transform="matrix(1.00, 0.00, -0.00, -1.00, 289.4, 319.0)">,</text><text xml:space="preserve" font-family="HelveticaNeue-CondensedBold" font-weight="bold" font-size="36.0" fill="#558AAA" transform="matrix(1.00, 0.00, -0.00, -1.00, 296.7, 319.0)"> </text><text xml:space="preserve" font-family="HelveticaNeue-CondensedBold" font-weight="bold" font-size="36.0" fill="#558AAA" transform="matrix(1.00, 0.00, -0.00, -1.00, 304.0, 319.0)">A</text><text xml:space="preserve" font-family="HelveticaNeue-CondensedBold" font-weight="bold" font-size="36.0" fill="#558AAA" transform="matrix(1.00, 0.00, -0.00, -1.00, 324.0, 319.0)">L</text><text xml:space="preserve" font-family="HelveticaNeue-CondensedBold" font-weight="bold" font-size="36.0" fill="#558AAA" transform="matrix(1.00, 0.00, -0.00, -1.00, 340.7, 319.0)">L</text><text xml:space="preserve" font-family="HelveticaNeue-CondensedBold" font-weight="bold" font-size="36.0" fill="#558AAA" transform="matrix(1.00, 0.00, -0.00, -1.00, 357.4, 319.0)"> </text><text xml:space="preserve" font-family="HelveticaNeue-CondensedBold" font-weight="bold" font-size="36.0" fill="#558AAA" transform="matrix(1.00, 0.00, -0.00, -1.00, 364.7, 319.0)">T</text><text xml:space="preserve" font-family="HelveticaNeue-CondensedBold" font-weight="bold" font-size="36.0" fill="#558AAA" transform="matrix(1.00, 0.00, -0.00, -1.00, 382.0, 319.0)">H</text><text xml:space="preserve" font-family="HelveticaNeue-CondensedBold" font-weight="bold" font-size="36.0" fill="#558AAA" transform="matrix(1.00, 0.00, -0.00, -1.00, 402.0, 319.0)">E</text><text xml:space="preserve" font-family="HelveticaNeue-CondensedBold" font-weight="bold" font-size="36.0" fill="#558AAA" transform="matrix(1.00, 0.00, -0.00, -1.00, 419.3, 319.0)"> </text><text xml:space="preserve" font-family="HelveticaNeue-CondensedBold" font-weight="bold" font-size="36.0" fill="#558AAA" transform="matrix(1.00, 0.00, -0.00, -1.00, 86.0, 275.0)">R</text><text xml:space="preserve" font-family="HelveticaNeue-CondensedBold" font-weight="bold" font-size="36.0" fill="#558AAA" transform="matrix(1.00, 0.00, -0.00, -1.00, 106.7, 275.0)">U</text><text xml:space="preserve" font-family="HelveticaNeue-CondensedBold" font-weight="bold" font-size="36.0" fill="#558AAA" transform="matrix(1.00, 0.00, -0.00, -1.00, 126.1, 275.0)">L</text><text xml:space="preserve" font-family="HelveticaNeue-CondensedBold" font-weight="bold" font-size="36.0" fill="#558AAA" transform="matrix(1.00, 0.00, -0.00, -1.00, 142.8, 275.0)">E</text><text xml:space="preserve" font-family="HelveticaNeue-CondensedBold" font-weight="bold" font-size="36.0" fill="#558AAA" transform="matrix(1.00, 0.00, -0.00, -1.00, 160.1, 275.0)">S</text><text xml:space="preserve" font-family="HelveticaNeue-CondensedBold" font-weight="bold" font-size="36.0" fill="#558AAA" transform="matrix(1.00, 0.00, -0.00, -1.00, 178.8, 275.0)"> </text><text xml:space="preserve" font-family="HelveticaNeue-CondensedBold" font-weight="bold" font-size="36.0" fill="#558AAA" transform="matrix(1.00, 0.00, -0.00, -1.00, 187.4, 275.0)">H</text><text xml:space="preserve" font-family="HelveticaNeue-CondensedBold" font-weight="bold" font-size="36.0" fill="#558AAA" transform="matrix(1.00, 0.00, -0.00, -1.00, 207.4, 275.0)">A</text><text xml:space="preserve" font-family="HelveticaNeue-CondensedBold" font-weight="bold" font-size="36.0" fill="#558AAA" transform="matrix(1.00, 0.00, -0.00, -1.00, 226.7, 275.0)">V</text><text xml:space="preserve" font-family="HelveticaNeue-CondensedBold" font-weight="bold" font-size="36.0" fill="#558AAA" transform="matrix(1.00, 0.00, -0.00, -1.00, 245.4, 275.0)">E</text><text xml:space="preserve" font-family="HelveticaNeue-CondensedBold" font-weight="bold" font-size="36.0" fill="#558AAA" transform="matrix(1.00, 0.00, -0.00, -1.00, 262.7, 275.0)"> </text><text xml:space="preserve" font-family="HelveticaNeue-CondensedBold" font-weight="bold" font-size="36.0" fill="#558AAA" transform="matrix(1.00, 0.00, -0.00, -1.00, 271.4, 275.0)">C</text><text xml:space="preserve" font-family="HelveticaNeue-CondensedBold" font-weight="bold" font-size="36.0" fill="#558AAA" transform="matrix(1.00, 0.00, -0.00, -1.00, 290.7, 275.0)">H</text><text xml:space="preserve" font-family="HelveticaNeue-CondensedBold" font-weight="bold" font-size="36.0" fill="#558AAA" transform="matrix(1.00, 0.00, -0.00, -1.00, 310.7, 275.0)">A</text><text xml:space="preserve" font-family="HelveticaNeue-CondensedBold" font-weight="bold" font-size="36.0" fill="#558AAA" transform="matrix(1.00, 0.00, -0.00, -1.00, 330.7, 275.0)">N</text><text xml:space="preserve" font-family="HelveticaNeue-CondensedBold" font-weight="bold" font-size="36.0" fill="#558AAA" transform="matrix(1.00, 0.00, -0.00, -1.00, 351.4, 275.0)">G</text><text xml:space="preserve" font-family="HelveticaNeue-CondensedBold" font-weight="bold" font-size="36.0" fill="#558AAA" transform="matrix(1.00, 0.00, -0.00, -1.00, 371.4, 275.0)">E</text><text xml:space="preserve" font-family="HelveticaNeue-CondensedBold" font-weight="bold" font-size="36.0" fill="#558AAA" transform="matrix(1.00, 0.00, -0.00, -1.00, 388.7, 275.0)">D</text></g></svg>