<?xml version="1.0" encoding="UTF-8" standalone="no"?><svg xmlns="http://www.w3.org/2000/svg" xmlns:xlink="http://www.w3.org/1999/xlink" clip-rule="evenodd" stroke-miterlimit="4.00" viewBox="0 0 1024 768"><desc>SVG generated by Keynote</desc><defs></defs><g transform="matrix(1.00, 0.00, -0.00, -1.00, 0.0, 768.0)"><g><clipPath id="clip-687"><path d="M 0.0 768.0 L 1024.0 768.0 L 1024.0 0.0 L 0.0 0.0 Z M 0.0 768.0 "></path></clipPath><g clip-path="url(#clip-687)"><image xlink:href="../../E7AB17DE-3C0D-452E-B40B-ED1A02EDB589/assets/75640688B43322D8ECDD2BA9341C9261.jpeg" width="1024.00" height="768.00" transform="matrix(1.00, 0.00, -0.00, -1.00, 0.0, 768.0)"></image></g></g><path d="M 0.0 0.0 L 980.0 0.0 L 980.0 726.0 L 0.0 726.0 Z M 0.0 0.0 " fill="none" stroke="#83817C" stroke-width="2.00" transform="matrix(1.00, 0.00, 0.00, -1.00, 22.0, 746.0)"></path><text xml:space="preserve" font-family="HelveticaNeue-CondensedBold" font-weight="bold" font-size="58.0" fill="#DEDEDE" transform="matrix(1.00, 0.00, -0.00, -1.00, 349.0, 425.0)">T</text><text xml:space="preserve" font-family="HelveticaNeue-CondensedBold" font-weight="bold" font-size="58.0" fill="#DEDEDE" transform="matrix(1.00, 0.00, -0.00, -1.00, 376.8, 425.0)">H</text><text xml:space="preserve" font-family="HelveticaNeue-CondensedBold" font-weight="bold" font-size="58.0" fill="#DEDEDE" transform="matrix(1.00, 0.00, -0.00, -1.00, 409.1, 425.0)">E</text><text xml:space="preserve" font-family="HelveticaNeue-CondensedBold" font-weight="bold" font-size="58.0" fill="#DEDEDE" transform="matrix(1.00, 0.00, -0.00, -1.00, 437.0, 425.0)">R</text><text xml:space="preserve" font-family="HelveticaNeue-CondensedBold" font-weight="bold" font-size="58.0" fill="#DEDEDE" transform="matrix(1.00, 0.00, -0.00, -1.00, 469.2, 425.0)">E</text><text xml:space="preserve" font-family="HelveticaNeue-CondensedBold" font-weight="bold" font-size="58.0" fill="#DEDEDE" transform="matrix(1.00, 0.00, -0.00, -1.00, 497.1, 425.0)">F</text><text xml:space="preserve" font-family="HelveticaNeue-CondensedBold" font-weight="bold" font-size="58.0" fill="#DEDEDE" transform="matrix(1.00, 0.00, -0.00, -1.00, 524.0, 425.0)">O</text><text xml:space="preserve" font-family="HelveticaNeue-CondensedBold" font-weight="bold" font-size="58.0" fill="#DEDEDE" transform="matrix(1.00, 0.00, -0.00, -1.00, 556.2, 425.0)">R</text><text xml:space="preserve" font-family="HelveticaNeue-CondensedBold" font-weight="bold" font-size="58.0" fill="#DEDEDE" transform="matrix(1.00, 0.00, -0.00, -1.00, 588.5, 425.0)">E</text><text xml:space="preserve" font-family="HelveticaNeue-CondensedBold" font-weight="bold" font-size="58.0" fill="#DEDEDE" transform="matrix(1.00, 0.00, -0.00, -1.00, 616.4, 425.0)">…</text><text xml:space="preserve" font-family="HelveticaNeue-CondensedBold" font-weight="bold" font-size="58.0" fill="#DEDEDE" transform="matrix(1.00, 0.00, -0.00, -1.00, 674.4, 425.0)"> </text><text xml:space="preserve" font-family="HelveticaNeue-CondensedBold" font-weight="bold" font-size="58.0" fill="#DEDEDE" transform="matrix(1.00, 0.00, -0.00, -1.00, 268.0, 361.0)">T</text><text xml:space="preserve" font-family="HelveticaNeue-CondensedBold" font-weight="bold" font-size="58.0" fill="#DEDEDE" transform="matrix(1.00, 0.00, -0.00, -1.00, 295.8, 361.0)">O</text><text xml:space="preserve" font-family="HelveticaNeue-CondensedBold" font-weight="bold" font-size="58.0" fill="#DEDEDE" transform="matrix(1.00, 0.00, -0.00, -1.00, 328.1, 361.0)"> </text><text xml:space="preserve" font-family="HelveticaNeue-CondensedBold" font-weight="bold" font-size="58.0" fill="#DEDEDE" transform="matrix(1.00, 0.00, -0.00, -1.00, 342.0, 361.0)">S</text><text xml:space="preserve" font-family="HelveticaNeue-CondensedBold" font-weight="bold" font-size="58.0" fill="#DEDEDE" transform="matrix(1.00, 0.00, -0.00, -1.00, 372.1, 361.0)">C</text><text xml:space="preserve" font-family="HelveticaNeue-CondensedBold" font-weight="bold" font-size="58.0" fill="#DEDEDE" transform="matrix(1.00, 0.00, -0.00, -1.00, 403.3, 361.0)">A</text><text xml:space="preserve" font-family="HelveticaNeue-CondensedBold" font-weight="bold" font-size="58.0" fill="#DEDEDE" transform="matrix(1.00, 0.00, -0.00, -1.00, 435.5, 361.0)">L</text><text xml:space="preserve" font-family="HelveticaNeue-CondensedBold" font-weight="bold" font-size="58.0" fill="#DEDEDE" transform="matrix(1.00, 0.00, -0.00, -1.00, 462.4, 361.0)">E</text><text xml:space="preserve" font-family="HelveticaNeue-CondensedBold" font-weight="bold" font-size="58.0" fill="#DEDEDE" transform="matrix(1.00, 0.00, -0.00, -1.00, 490.3, 361.0)"> </text><text xml:space="preserve" font-family="HelveticaNeue-CondensedBold" font-weight="bold" font-size="58.0" fill="#DEDEDE" transform="matrix(1.00, 0.00, -0.00, -1.00, 504.2, 361.0)">I</text><text xml:space="preserve" font-family="HelveticaNeue-CondensedBold" font-weight="bold" font-size="58.0" fill="#DEDEDE" transform="matrix(1.00, 0.00, -0.00, -1.00, 519.1, 361.0)">N</text><text xml:space="preserve" font-family="HelveticaNeue-CondensedBold" font-weight="bold" font-size="58.0" fill="#DEDEDE" transform="matrix(1.00, 0.00, -0.00, -1.00, 552.4, 361.0)">F</text><text xml:space="preserve" font-family="HelveticaNeue-CondensedBold" font-weight="bold" font-size="58.0" fill="#DEDEDE" transform="matrix(1.00, 0.00, -0.00, -1.00, 579.3, 361.0)">I</text><text xml:space="preserve" font-family="HelveticaNeue-CondensedBold" font-weight="bold" font-size="58.0" fill="#DEDEDE" transform="matrix(1.00, 0.00, -0.00, -1.00, 594.2, 361.0)">N</text><text xml:space="preserve" font-family="HelveticaNeue-CondensedBold" font-weight="bold" font-size="58.0" fill="#DEDEDE" transform="matrix(1.00, 0.00, -0.00, -1.00, 627.5, 361.0)">I</text><text xml:space="preserve" font-family="HelveticaNeue-CondensedBold" font-weight="bold" font-size="58.0" fill="#DEDEDE" transform="matrix(1.00, 0.00, -0.00, -1.00, 642.5, 361.0)">T</text><text xml:space="preserve" font-family="HelveticaNeue-CondensedBold" font-weight="bold" font-size="58.0" fill="#DEDEDE" transform="matrix(1.00, 0.00, -0.00, -1.00, 670.3, 361.0)">E</text><text xml:space="preserve" font-family="HelveticaNeue-CondensedBold" font-weight="bold" font-size="58.0" fill="#DEDEDE" transform="matrix(1.00, 0.00, -0.00, -1.00, 698.2, 361.0)">L</text><text xml:space="preserve" font-family="HelveticaNeue-CondensedBold" font-weight="bold" font-size="58.0" fill="#DEDEDE" transform="matrix(1.00, 0.00, -0.00, -1.00, 719.8, 361.0)">Y</text><text xml:space="preserve" font-family="HelveticaNeue-CondensedBold" font-weight="bold" font-size="58.0" fill="#DEDEDE" transform="matrix(1.00, 0.00, -0.00, -1.00, 743.5, 361.0)">,</text><text xml:space="preserve" font-family="HelveticaNeue-CondensedBold" font-weight="bold" font-size="58.0" fill="#DEDEDE" transform="matrix(1.00, 0.00, -0.00, -1.00, 755.3, 361.0)"> </text><text xml:space="preserve" font-family="HelveticaNeue-CondensedBold" font-weight="bold" font-size="58.0" fill="#DEDEDE" transform="matrix(1.00, 0.00, -0.00, -1.00, 163.0, 297.0)">W</text><text xml:space="preserve" font-family="HelveticaNeue-CondensedBold" font-weight="bold" font-size="58.0" fill="#DEDEDE" transform="matrix(1.00, 0.00, -0.00, -1.00, 207.1, 297.0)">E</text><text xml:space="preserve" font-family="HelveticaNeue-CondensedBold" font-weight="bold" font-size="58.0" fill="#DEDEDE" transform="matrix(1.00, 0.00, -0.00, -1.00, 235.0, 297.0)"> </text><text xml:space="preserve" font-family="HelveticaNeue-CondensedBold" font-weight="bold" font-size="58.0" fill="#DEDEDE" transform="matrix(1.00, 0.00, -0.00, -1.00, 248.9, 297.0)">C</text><text xml:space="preserve" font-family="HelveticaNeue-CondensedBold" font-weight="bold" font-size="58.0" fill="#DEDEDE" transform="matrix(1.00, 0.00, -0.00, -1.00, 280.0, 297.0)">A</text><text xml:space="preserve" font-family="HelveticaNeue-CondensedBold" font-weight="bold" font-size="58.0" fill="#DEDEDE" transform="matrix(1.00, 0.00, -0.00, -1.00, 312.3, 297.0)">N</text><text xml:space="preserve" font-family="HelveticaNeue-CondensedBold" font-weight="bold" font-size="58.0" fill="#DEDEDE" transform="matrix(1.00, 0.00, -0.00, -1.00, 345.6, 297.0)">’</text><text xml:space="preserve" font-family="HelveticaNeue-CondensedBold" font-weight="bold" font-size="58.0" fill="#DEDEDE" transform="matrix(1.00, 0.00, -0.00, -1.00, 360.7, 297.0)">T</text><text xml:space="preserve" font-family="HelveticaNeue-CondensedBold" font-weight="bold" font-size="58.0" fill="#DEDEDE" transform="matrix(1.00, 0.00, -0.00, -1.00, 388.5, 297.0)"> </text><text xml:space="preserve" font-family="HelveticaNeue-CondensedBold" font-weight="bold" font-size="58.0" fill="#DEDEDE" transform="matrix(1.00, 0.00, -0.00, -1.00, 402.4, 297.0)">U</text><text xml:space="preserve" font-family="HelveticaNeue-CondensedBold" font-weight="bold" font-size="58.0" fill="#DEDEDE" transform="matrix(1.00, 0.00, -0.00, -1.00, 433.6, 297.0)">S</text><text xml:space="preserve" font-family="HelveticaNeue-CondensedBold" font-weight="bold" font-size="58.0" fill="#DEDEDE" transform="matrix(1.00, 0.00, -0.00, -1.00, 463.7, 297.0)">E</text><text xml:space="preserve" font-family="HelveticaNeue-CondensedBold" font-weight="bold" font-size="58.0" fill="#DEDEDE" transform="matrix(1.00, 0.00, -0.00, -1.00, 491.6, 297.0)"> </text><text xml:space="preserve" font-family="HelveticaNeue-CondensedBold" font-weight="bold" font-size="58.0" fill="#DEDEDE" transform="matrix(1.00, 0.00, -0.00, -1.00, 503.4, 297.0)">T</text><text xml:space="preserve" font-family="HelveticaNeue-CondensedBold" font-weight="bold" font-size="58.0" fill="#DEDEDE" transform="matrix(1.00, 0.00, -0.00, -1.00, 531.2, 297.0)">R</text><text xml:space="preserve" font-family="HelveticaNeue-CondensedBold" font-weight="bold" font-size="58.0" fill="#DEDEDE" transform="matrix(1.00, 0.00, -0.00, -1.00, 563.5, 297.0)">A</text><text xml:space="preserve" font-family="HelveticaNeue-CondensedBold" font-weight="bold" font-size="58.0" fill="#DEDEDE" transform="matrix(1.00, 0.00, -0.00, -1.00, 595.7, 297.0)">N</text><text xml:space="preserve" font-family="HelveticaNeue-CondensedBold" font-weight="bold" font-size="58.0" fill="#DEDEDE" transform="matrix(1.00, 0.00, -0.00, -1.00, 629.0, 297.0)">S</text><text xml:space="preserve" font-family="HelveticaNeue-CondensedBold" font-weight="bold" font-size="58.0" fill="#DEDEDE" transform="matrix(1.00, 0.00, -0.00, -1.00, 659.1, 297.0)">A</text><text xml:space="preserve" font-family="HelveticaNeue-CondensedBold" font-weight="bold" font-size="58.0" fill="#DEDEDE" transform="matrix(1.00, 0.00, -0.00, -1.00, 691.4, 297.0)">C</text><text xml:space="preserve" font-family="HelveticaNeue-CondensedBold" font-weight="bold" font-size="58.0" fill="#DEDEDE" transform="matrix(1.00, 0.00, -0.00, -1.00, 722.5, 297.0)">T</text><text xml:space="preserve" font-family="HelveticaNeue-CondensedBold" font-weight="bold" font-size="58.0" fill="#DEDEDE" transform="matrix(1.00, 0.00, -0.00, -1.00, 750.4, 297.0)">I</text><text xml:space="preserve" font-family="HelveticaNeue-CondensedBold" font-weight="bold" font-size="58.0" fill="#DEDEDE" transform="matrix(1.00, 0.00, -0.00, -1.00, 765.3, 297.0)">O</text><text xml:space="preserve" font-family="HelveticaNeue-CondensedBold" font-weight="bold" font-size="58.0" fill="#DEDEDE" transform="matrix(1.00, 0.00, -0.00, -1.00, 797.6, 297.0)">N</text><text xml:space="preserve" font-family="HelveticaNeue-CondensedBold" font-weight="bold" font-size="58.0" fill="#DEDEDE" transform="matrix(1.00, 0.00, -0.00, -1.00, 830.9, 297.0)">S</text></g></svg>