<?xml version="1.0" encoding="UTF-8" standalone="no"?><svg xmlns="http://www.w3.org/2000/svg" xmlns:xlink="http://www.w3.org/1999/xlink" clip-rule="evenodd" stroke-miterlimit="4.00" viewBox="0 0 1024 768"><desc>SVG generated by Keynote</desc><defs></defs><g transform="matrix(1.00, 0.00, -0.00, -1.00, 0.0, 768.0)"><g><clipPath id="clip-685"><path d="M 0.0 768.0 L 1024.0 768.0 L 1024.0 0.0 L 0.0 0.0 Z M 0.0 768.0 "></path></clipPath><g clip-path="url(#clip-685)"><image xlink:href="../../E7AB17DE-3C0D-452E-B40B-ED1A02EDB589/assets/75640688B43322D8ECDD2BA9341C9261.jpeg" width="1024.00" height="768.00" transform="matrix(1.00, 0.00, -0.00, -1.00, 0.0, 768.0)"></image></g></g><path d="M 0.0 0.0 L 980.0 0.0 L 980.0 726.0 L 0.0 726.0 Z M 0.0 0.0 " fill="none" stroke="#83817C" stroke-width="2.00" transform="matrix(1.00, 0.00, 0.00, -1.00, 22.0, 746.0)"></path><text xml:space="preserve" font-family="HelveticaNeue-CondensedBold" font-weight="bold" font-size="58.0" fill="#DEDEDE" transform="matrix(1.00, 0.00, -0.00, -1.00, 122.0, 393.0)">D</text><text xml:space="preserve" font-family="HelveticaNeue-CondensedBold" font-weight="bold" font-size="58.0" fill="#DEDEDE" transform="matrix(1.00, 0.00, -0.00, -1.00, 155.3, 393.0)">I</text><text xml:space="preserve" font-family="HelveticaNeue-CondensedBold" font-weight="bold" font-size="58.0" fill="#DEDEDE" transform="matrix(1.00, 0.00, -0.00, -1.00, 170.3, 393.0)">S</text><text xml:space="preserve" font-family="HelveticaNeue-CondensedBold" font-weight="bold" font-size="58.0" fill="#DEDEDE" transform="matrix(1.00, 0.00, -0.00, -1.00, 200.4, 393.0)">T</text><text xml:space="preserve" font-family="HelveticaNeue-CondensedBold" font-weight="bold" font-size="58.0" fill="#DEDEDE" transform="matrix(1.00, 0.00, -0.00, -1.00, 228.2, 393.0)">R</text><text xml:space="preserve" font-family="HelveticaNeue-CondensedBold" font-weight="bold" font-size="58.0" fill="#DEDEDE" transform="matrix(1.00, 0.00, -0.00, -1.00, 260.4, 393.0)">I</text><text xml:space="preserve" font-family="HelveticaNeue-CondensedBold" font-weight="bold" font-size="58.0" fill="#DEDEDE" transform="matrix(1.00, 0.00, -0.00, -1.00, 275.4, 393.0)">B</text><text xml:space="preserve" font-family="HelveticaNeue-CondensedBold" font-weight="bold" font-size="58.0" fill="#DEDEDE" transform="matrix(1.00, 0.00, -0.00, -1.00, 307.7, 393.0)">U</text><text xml:space="preserve" font-family="HelveticaNeue-CondensedBold" font-weight="bold" font-size="58.0" fill="#DEDEDE" transform="matrix(1.00, 0.00, -0.00, -1.00, 338.9, 393.0)">T</text><text xml:space="preserve" font-family="HelveticaNeue-CondensedBold" font-weight="bold" font-size="58.0" fill="#DEDEDE" transform="matrix(1.00, 0.00, -0.00, -1.00, 366.7, 393.0)">E</text><text xml:space="preserve" font-family="HelveticaNeue-CondensedBold" font-weight="bold" font-size="58.0" fill="#DEDEDE" transform="matrix(1.00, 0.00, -0.00, -1.00, 394.6, 393.0)">D</text><text xml:space="preserve" font-family="HelveticaNeue-CondensedBold" font-weight="bold" font-size="58.0" fill="#DEDEDE" transform="matrix(1.00, 0.00, -0.00, -1.00, 427.9, 393.0)"> </text><text xml:space="preserve" font-family="HelveticaNeue-CondensedBold" font-weight="bold" font-size="58.0" fill="#DEDEDE" transform="matrix(1.00, 0.00, -0.00, -1.00, 439.7, 393.0)">T</text><text xml:space="preserve" font-family="HelveticaNeue-CondensedBold" font-weight="bold" font-size="58.0" fill="#DEDEDE" transform="matrix(1.00, 0.00, -0.00, -1.00, 467.5, 393.0)">R</text><text xml:space="preserve" font-family="HelveticaNeue-CondensedBold" font-weight="bold" font-size="58.0" fill="#DEDEDE" transform="matrix(1.00, 0.00, -0.00, -1.00, 499.8, 393.0)">A</text><text xml:space="preserve" font-family="HelveticaNeue-CondensedBold" font-weight="bold" font-size="58.0" fill="#DEDEDE" transform="matrix(1.00, 0.00, -0.00, -1.00, 532.0, 393.0)">N</text><text xml:space="preserve" font-family="HelveticaNeue-CondensedBold" font-weight="bold" font-size="58.0" fill="#DEDEDE" transform="matrix(1.00, 0.00, -0.00, -1.00, 565.3, 393.0)">S</text><text xml:space="preserve" font-family="HelveticaNeue-CondensedBold" font-weight="bold" font-size="58.0" fill="#DEDEDE" transform="matrix(1.00, 0.00, -0.00, -1.00, 595.4, 393.0)">A</text><text xml:space="preserve" font-family="HelveticaNeue-CondensedBold" font-weight="bold" font-size="58.0" fill="#DEDEDE" transform="matrix(1.00, 0.00, -0.00, -1.00, 627.6, 393.0)">C</text><text xml:space="preserve" font-family="HelveticaNeue-CondensedBold" font-weight="bold" font-size="58.0" fill="#DEDEDE" transform="matrix(1.00, 0.00, -0.00, -1.00, 658.8, 393.0)">T</text><text xml:space="preserve" font-family="HelveticaNeue-CondensedBold" font-weight="bold" font-size="58.0" fill="#DEDEDE" transform="matrix(1.00, 0.00, -0.00, -1.00, 686.6, 393.0)">I</text><text xml:space="preserve" font-family="HelveticaNeue-CondensedBold" font-weight="bold" font-size="58.0" fill="#DEDEDE" transform="matrix(1.00, 0.00, -0.00, -1.00, 701.6, 393.0)">O</text><text xml:space="preserve" font-family="HelveticaNeue-CondensedBold" font-weight="bold" font-size="58.0" fill="#DEDEDE" transform="matrix(1.00, 0.00, -0.00, -1.00, 733.8, 393.0)">N</text><text xml:space="preserve" font-family="HelveticaNeue-CondensedBold" font-weight="bold" font-size="58.0" fill="#DEDEDE" transform="matrix(1.00, 0.00, -0.00, -1.00, 767.1, 393.0)">S</text><text xml:space="preserve" font-family="HelveticaNeue-CondensedBold" font-weight="bold" font-size="58.0" fill="#DEDEDE" transform="matrix(1.00, 0.00, -0.00, -1.00, 797.2, 393.0)"> </text><text xml:space="preserve" font-family="HelveticaNeue-CondensedBold" font-weight="bold" font-size="58.0" fill="#DEDEDE" transform="matrix(1.00, 0.00, -0.00, -1.00, 809.0, 393.0)">A</text><text xml:space="preserve" font-family="HelveticaNeue-CondensedBold" font-weight="bold" font-size="58.0" fill="#DEDEDE" transform="matrix(1.00, 0.00, -0.00, -1.00, 841.3, 393.0)">R</text><text xml:space="preserve" font-family="HelveticaNeue-CondensedBold" font-weight="bold" font-size="58.0" fill="#DEDEDE" transform="matrix(1.00, 0.00, -0.00, -1.00, 873.5, 393.0)">E</text><text xml:space="preserve" font-family="HelveticaNeue-CondensedBold" font-weight="bold" font-size="58.0" fill="#DEDEDE" transform="matrix(1.00, 0.00, -0.00, -1.00, 901.4, 393.0)"> </text><text xml:space="preserve" font-family="HelveticaNeue-CondensedBold" font-weight="bold" font-size="58.0" fill="#DEDEDE" transform="matrix(1.00, 0.00, -0.00, -1.00, 205.0, 329.0)">A</text><text xml:space="preserve" font-family="HelveticaNeue-CondensedBold" font-weight="bold" font-size="58.0" fill="#DEDEDE" transform="matrix(1.00, 0.00, -0.00, -1.00, 237.2, 329.0)"> </text><text xml:space="preserve" font-family="HelveticaNeue-CondensedBold" font-weight="bold" font-size="58.0" fill="#DEDEDE" transform="matrix(1.00, 0.00, -0.00, -1.00, 251.2, 329.0)">F</text><text xml:space="preserve" font-family="HelveticaNeue-CondensedBold" font-weight="bold" font-size="58.0" fill="#DEDEDE" transform="matrix(1.00, 0.00, -0.00, -1.00, 278.0, 329.0)">O</text><text xml:space="preserve" font-family="HelveticaNeue-CondensedBold" font-weight="bold" font-size="58.0" fill="#DEDEDE" transform="matrix(1.00, 0.00, -0.00, -1.00, 310.3, 329.0)">R</text><text xml:space="preserve" font-family="HelveticaNeue-CondensedBold" font-weight="bold" font-size="58.0" fill="#DEDEDE" transform="matrix(1.00, 0.00, -0.00, -1.00, 342.5, 329.0)">M</text><text xml:space="preserve" font-family="HelveticaNeue-CondensedBold" font-weight="bold" font-size="58.0" fill="#DEDEDE" transform="matrix(1.00, 0.00, -0.00, -1.00, 385.4, 329.0)"> </text><text xml:space="preserve" font-family="HelveticaNeue-CondensedBold" font-weight="bold" font-size="58.0" fill="#DEDEDE" transform="matrix(1.00, 0.00, -0.00, -1.00, 399.4, 329.0)">O</text><text xml:space="preserve" font-family="HelveticaNeue-CondensedBold" font-weight="bold" font-size="58.0" fill="#DEDEDE" transform="matrix(1.00, 0.00, -0.00, -1.00, 431.6, 329.0)">F</text><text xml:space="preserve" font-family="HelveticaNeue-CondensedBold" font-weight="bold" font-size="58.0" fill="#DEDEDE" transform="matrix(1.00, 0.00, -0.00, -1.00, 458.5, 329.0)"> </text><text xml:space="preserve" font-family="HelveticaNeue-CondensedBold" font-weight="bold" font-size="58.0" fill="#DEDEDE" transform="matrix(1.00, 0.00, -0.00, -1.00, 472.4, 329.0)">C</text><text xml:space="preserve" font-family="HelveticaNeue-CondensedBold" font-weight="bold" font-size="58.0" fill="#DEDEDE" transform="matrix(1.00, 0.00, -0.00, -1.00, 503.5, 329.0)">O</text><text xml:space="preserve" font-family="HelveticaNeue-CondensedBold" font-weight="bold" font-size="58.0" fill="#DEDEDE" transform="matrix(1.00, 0.00, -0.00, -1.00, 535.8, 329.0)">O</text><text xml:space="preserve" font-family="HelveticaNeue-CondensedBold" font-weight="bold" font-size="58.0" fill="#DEDEDE" transform="matrix(1.00, 0.00, -0.00, -1.00, 568.0, 329.0)">R</text><text xml:space="preserve" font-family="HelveticaNeue-CondensedBold" font-weight="bold" font-size="58.0" fill="#DEDEDE" transform="matrix(1.00, 0.00, -0.00, -1.00, 600.3, 329.0)">D</text><text xml:space="preserve" font-family="HelveticaNeue-CondensedBold" font-weight="bold" font-size="58.0" fill="#DEDEDE" transform="matrix(1.00, 0.00, -0.00, -1.00, 633.6, 329.0)">I</text><text xml:space="preserve" font-family="HelveticaNeue-CondensedBold" font-weight="bold" font-size="58.0" fill="#DEDEDE" transform="matrix(1.00, 0.00, -0.00, -1.00, 648.5, 329.0)">N</text><text xml:space="preserve" font-family="HelveticaNeue-CondensedBold" font-weight="bold" font-size="58.0" fill="#DEDEDE" transform="matrix(1.00, 0.00, -0.00, -1.00, 681.8, 329.0)">A</text><text xml:space="preserve" font-family="HelveticaNeue-CondensedBold" font-weight="bold" font-size="58.0" fill="#DEDEDE" transform="matrix(1.00, 0.00, -0.00, -1.00, 710.9, 329.0)">T</text><text xml:space="preserve" font-family="HelveticaNeue-CondensedBold" font-weight="bold" font-size="58.0" fill="#DEDEDE" transform="matrix(1.00, 0.00, -0.00, -1.00, 738.7, 329.0)">I</text><text xml:space="preserve" font-family="HelveticaNeue-CondensedBold" font-weight="bold" font-size="58.0" fill="#DEDEDE" transform="matrix(1.00, 0.00, -0.00, -1.00, 753.7, 329.0)">O</text><text xml:space="preserve" font-family="HelveticaNeue-CondensedBold" font-weight="bold" font-size="58.0" fill="#DEDEDE" transform="matrix(1.00, 0.00, -0.00, -1.00, 785.9, 329.0)">N</text></g></svg>