<?xml version="1.0" encoding="UTF-8" standalone="no"?><svg xmlns="http://www.w3.org/2000/svg" xmlns:xlink="http://www.w3.org/1999/xlink" clip-rule="evenodd" stroke-miterlimit="4.00" viewBox="0 0 1024 768"><desc>SVG generated by Keynote</desc><defs><pattern id="FF4348B5-5E0E-4445-8037-A69E3BD67481" patternUnits="userSpaceOnUse" width="506" height="506" viewBox="0 0 506 506" patternTransform="matrix(0.569170, 0.000000, 0.000000, -0.569170, 297.277900, 635.100200)"><image xlink:href="../../BBCDB6C5-B5BD-42E5-B040-F048B0AEBC8D/assets/4230BBACA6C27AFBED544E65E457AFDB.jpeg" width="506.00" height="506.00"></image></pattern><pattern id="2A87B3C0-B0F5-451D-960E-434EC9E4C2F0" patternUnits="userSpaceOnUse" width="506" height="506" viewBox="0 0 506 506" patternTransform="matrix(0.569170, 0.000000, 0.000000, -0.569170, 343.242000, 544.336500)"><image xlink:href="../../BBCDB6C5-B5BD-42E5-B040-F048B0AEBC8D/assets/4230BBACA6C27AFBED544E65E457AFDB.jpeg" width="506.00" height="506.00"></image></pattern><pattern id="953359AB-B680-40E3-BC92-F9DAC5F9DA92" patternUnits="userSpaceOnUse" width="506" height="506" viewBox="0 0 506 506" patternTransform="matrix(0.569170, 0.000000, 0.000000, -0.569170, 343.242000, 315.115300)"><image xlink:href="../../BBCDB6C5-B5BD-42E5-B040-F048B0AEBC8D/assets/4230BBACA6C27AFBED544E65E457AFDB.jpeg" width="506.00" height="506.00"></image></pattern></defs><g transform="matrix(1.00, 0.00, -0.00, -1.00, 0.0, 768.0)"><g><clipPath id="clip-1162"><path d="M 0.0 768.0 L 1024.0 768.0 L 1024.0 0.0 L 0.0 0.0 Z M 0.0 768.0 "></path></clipPath><g clip-path="url(#clip-1162)"><image xlink:href="../../E7AB17DE-3C0D-452E-B40B-ED1A02EDB589/assets/75640688B43322D8ECDD2BA9341C9261.jpeg" width="1024.00" height="768.00" transform="matrix(1.00, 0.00, -0.00, -1.00, 0.0, 768.0)"></image></g></g><path d="M 0.0 0.0 L 980.0 0.0 L 980.0 726.0 L 0.0 726.0 Z M 0.0 0.0 " fill="none" stroke="#83817C" stroke-width="2.00" transform="matrix(1.00, 0.00, 0.00, -1.00, 22.0, 746.0)"></path><g><clipPath id="clip-1163"><path d="M 390.2 635.1 L 609.5 635.1 C 636.1 635.1 649.7 635.1 664.0 630.5 C 679.7 624.8 692.1 612.4 697.9 596.7 C 702.4 582.4 702.4 568.8 702.4 541.8 L 702.4 223.8 C 702.4 197.2 702.4 183.6 697.9 169.3 C 692.1 153.6 679.7 141.2 664.0 135.5 C 649.7 130.9 636.1 130.9 609.1 130.9 L 390.2 130.9 C 363.5 130.9 350.0 130.9 335.7 135.5 C 319.9 141.2 307.6 153.6 301.8 169.3 C 297.3 183.6 297.3 197.2 297.3 224.2 L 297.3 542.2 C 297.3 568.8 297.3 582.4 301.8 596.7 C 307.6 612.4 319.9 624.8 335.7 630.5 C 350.0 635.1 363.5 635.1 390.6 635.1 Z M 390.2 635.1 "></path></clipPath><g clip-path="url(#clip-1163)"><path d="M 297.3 130.9 L 702.4 130.9 L 702.4 635.1 L 297.3 635.1 Z M 297.3 130.9 " fill="url(#FF4348B5-5E0E-4445-8037-A69E3BD67481)"></path><path d="M 297.3 635.1 L 702.4 635.1 L 702.4 130.9 L 297.3 130.9 Z M 297.3 635.1 " fill="#4075C4" fill-opacity="0.50"></path></g></g><g><clipPath id="clip-1164"><path d="M 366.2 544.3 L 633.5 544.3 C 640.1 544.3 643.4 544.3 647.0 543.2 C 650.8 541.8 653.9 538.7 655.3 534.9 C 656.4 531.3 656.4 528.0 656.4 521.3 L 656.4 471.7 C 656.4 465.1 656.4 461.8 655.3 458.2 C 653.9 454.3 650.8 451.3 647.0 449.9 C 643.4 448.7 640.1 448.7 633.4 448.7 L 366.2 448.7 C 359.6 448.7 356.3 448.7 352.7 449.9 C 348.8 451.3 345.8 454.3 344.4 458.2 C 343.2 461.8 343.2 465.1 343.2 471.8 L 343.2 521.4 C 343.2 528.0 343.2 531.3 344.4 534.9 C 345.8 538.7 348.8 541.8 352.7 543.2 C 356.3 544.3 359.6 544.3 366.3 544.3 Z M 366.2 544.3 "></path></clipPath><g clip-path="url(#clip-1164)"><path d="M 343.2 448.7 L 656.4 448.7 L 656.4 544.3 L 343.2 544.3 Z M 343.2 448.7 " fill="url(#2A87B3C0-B0F5-451D-960E-434EC9E4C2F0)"></path><path d="M 343.2 544.3 L 656.4 544.3 L 656.4 448.7 L 343.2 448.7 Z M 343.2 544.3 " fill="#B21600" fill-opacity="0.58"></path></g></g><g><clipPath id="clip-1165"><path d="M 338.5 448.7 L 661.2 448.7 L 661.2 544.3 L 338.5 544.3 Z M 338.5 448.7 "></path></clipPath><g clip-path="url(#clip-1165)"><text xml:space="preserve" font-family="HelveticaNeue" font-size="30.0" fill="#DEDEDE" transform="matrix(1.00, 0.00, -0.00, -1.00, 402.0, 485.0)">s</text><text xml:space="preserve" font-family="HelveticaNeue" font-size="30.0" fill="#DEDEDE" transform="matrix(1.00, 0.00, -0.00, -1.00, 417.0, 485.0)">c</text><text xml:space="preserve" font-family="HelveticaNeue" font-size="30.0" fill="#DEDEDE" transform="matrix(1.00, 0.00, -0.00, -1.00, 433.1, 485.0)">a</text><text xml:space="preserve" font-family="HelveticaNeue" font-size="30.0" fill="#DEDEDE" transform="matrix(1.00, 0.00, -0.00, -1.00, 449.2, 485.0)">l</text><text xml:space="preserve" font-family="HelveticaNeue" font-size="30.0" fill="#DEDEDE" transform="matrix(1.00, 0.00, -0.00, -1.00, 455.9, 485.0)">e</text><text xml:space="preserve" font-family="HelveticaNeue" font-size="30.0" fill="#DEDEDE" transform="matrix(1.00, 0.00, -0.00, -1.00, 472.0, 485.0)">-</text><text xml:space="preserve" font-family="HelveticaNeue" font-size="30.0" fill="#DEDEDE" transform="matrix(1.00, 0.00, -0.00, -1.00, 483.7, 485.0)">a</text><text xml:space="preserve" font-family="HelveticaNeue" font-size="30.0" fill="#DEDEDE" transform="matrix(1.00, 0.00, -0.00, -1.00, 499.8, 485.0)">g</text><text xml:space="preserve" font-family="HelveticaNeue" font-size="30.0" fill="#DEDEDE" transform="matrix(1.00, 0.00, -0.00, -1.00, 517.0, 485.0)">n</text><text xml:space="preserve" font-family="HelveticaNeue" font-size="30.0" fill="#DEDEDE" transform="matrix(1.00, 0.00, -0.00, -1.00, 533.7, 485.0)">o</text><text xml:space="preserve" font-family="HelveticaNeue" font-size="30.0" fill="#DEDEDE" transform="matrix(1.00, 0.00, -0.00, -1.00, 550.9, 485.0)">s</text><text xml:space="preserve" font-family="HelveticaNeue" font-size="30.0" fill="#DEDEDE" transform="matrix(1.00, 0.00, -0.00, -1.00, 565.9, 485.0)">t</text><text xml:space="preserve" font-family="HelveticaNeue" font-size="30.0" fill="#DEDEDE" transform="matrix(1.00, 0.00, -0.00, -1.00, 575.3, 485.0)">i</text><text xml:space="preserve" font-family="HelveticaNeue" font-size="30.0" fill="#DEDEDE" transform="matrix(1.00, 0.00, -0.00, -1.00, 582.0, 485.0)">c</text></g></g><g><clipPath id="clip-1166"><path d="M 366.2 315.1 L 633.5 315.1 C 640.1 315.1 643.4 315.1 647.0 314.0 C 650.8 312.6 653.9 309.5 655.3 305.6 C 656.4 302.1 656.4 298.8 656.4 292.1 L 656.4 242.5 C 656.4 235.9 656.4 232.5 655.3 229.0 C 653.9 225.1 650.8 222.1 647.0 220.7 C 643.4 219.5 640.1 219.5 633.4 219.5 L 366.2 219.5 C 359.6 219.5 356.3 219.5 352.7 220.7 C 348.8 222.1 345.8 225.1 344.4 229.0 C 343.2 232.5 343.2 235.9 343.2 242.6 L 343.2 292.2 C 343.2 298.8 343.2 302.1 344.4 305.6 C 345.8 309.5 348.8 312.6 352.7 314.0 C 356.3 315.1 359.6 315.1 366.3 315.1 Z M 366.2 315.1 "></path></clipPath><g clip-path="url(#clip-1166)"><path d="M 343.2 219.5 L 656.4 219.5 L 656.4 315.1 L 343.2 315.1 Z M 343.2 219.5 " fill="url(#953359AB-B680-40E3-BC92-F9DAC5F9DA92)"></path><path d="M 343.2 315.1 L 656.4 315.1 L 656.4 219.5 L 343.2 219.5 Z M 343.2 315.1 " fill="#B21600" fill-opacity="0.58"></path></g></g><g><clipPath id="clip-1167"><path d="M 338.5 219.5 L 661.2 219.5 L 661.2 315.1 L 338.5 315.1 Z M 338.5 219.5 "></path></clipPath><g clip-path="url(#clip-1167)"><text xml:space="preserve" font-family="HelveticaNeue" font-size="30.0" fill="#DEDEDE" transform="matrix(1.00, 0.00, -0.00, -1.00, 419.0, 256.0)">s</text><text xml:space="preserve" font-family="HelveticaNeue" font-size="30.0" fill="#DEDEDE" transform="matrix(1.00, 0.00, -0.00, -1.00, 434.0, 256.0)">c</text><text xml:space="preserve" font-family="HelveticaNeue" font-size="30.0" fill="#DEDEDE" transform="matrix(1.00, 0.00, -0.00, -1.00, 450.1, 256.0)">a</text><text xml:space="preserve" font-family="HelveticaNeue" font-size="30.0" fill="#DEDEDE" transform="matrix(1.00, 0.00, -0.00, -1.00, 466.2, 256.0)">l</text><text xml:space="preserve" font-family="HelveticaNeue" font-size="30.0" fill="#DEDEDE" transform="matrix(1.00, 0.00, -0.00, -1.00, 472.9, 256.0)">e</text><text xml:space="preserve" font-family="HelveticaNeue" font-size="30.0" fill="#DEDEDE" transform="matrix(1.00, 0.00, -0.00, -1.00, 489.0, 256.0)">-</text><text xml:space="preserve" font-family="HelveticaNeue" font-size="30.0" fill="#DEDEDE" transform="matrix(1.00, 0.00, -0.00, -1.00, 500.7, 256.0)">a</text><text xml:space="preserve" font-family="HelveticaNeue" font-size="30.0" fill="#DEDEDE" transform="matrix(1.00, 0.00, -0.00, -1.00, 516.8, 256.0)">w</text><text xml:space="preserve" font-family="HelveticaNeue" font-size="30.0" fill="#DEDEDE" transform="matrix(1.00, 0.00, -0.00, -1.00, 539.5, 256.0)">a</text><text xml:space="preserve" font-family="HelveticaNeue" font-size="30.0" fill="#DEDEDE" transform="matrix(1.00, 0.00, -0.00, -1.00, 555.6, 256.0)">r</text><text xml:space="preserve" font-family="HelveticaNeue" font-size="30.0" fill="#DEDEDE" transform="matrix(1.00, 0.00, -0.00, -1.00, 565.1, 256.0)">e</text></g></g><image xlink:href="../../F06F92DE-0571-4F3C-BC56-A928789713A7/assets/A3DEA763C09F1F1922AC44B399A32300.png" width="240.00" height="96.00" transform="matrix(1.00, 0.00, -0.00, -1.00, 380.8, 431.0)" opacity="0.50"></image><g><clipPath id="clip-1168"><path d="M 416.7 417.0 L 583.0 417.0 C 589.6 417.0 592.9 417.0 596.5 415.9 C 600.3 414.5 603.4 411.4 604.8 407.5 C 605.9 404.0 605.9 400.6 605.9 394.0 L 605.9 371.9 C 605.9 365.4 605.9 362.0 604.8 358.5 C 603.4 354.6 600.3 351.5 596.5 350.1 C 592.9 349.0 589.6 349.0 582.9 349.0 L 416.7 349.0 C 410.1 349.0 406.8 349.0 403.2 350.1 C 399.4 351.5 396.3 354.6 394.9 358.5 C 393.8 362.0 393.8 365.4 393.8 372.0 L 393.8 394.1 C 393.8 400.6 393.8 404.0 394.9 407.5 C 396.3 411.4 399.4 414.5 403.2 415.9 C 406.8 417.0 410.1 417.0 416.8 417.0 Z M 416.7 417.0 "></path></clipPath><g clip-path="url(#clip-1168)"><image xlink:href="../../BBCDB6C5-B5BD-42E5-B040-F048B0AEBC8D/assets/4230BBACA6C27AFBED544E65E457AFDB.jpeg" width="506.00" height="506.00" transform="matrix(0.57, 0.00, -0.00, -0.57, 393.8, 417.0)"></image><path d="M 393.8 417.0 L 605.9 417.0 L 605.9 349.0 L 393.8 349.0 Z M 393.8 417.0 " fill="#57A03F" fill-opacity="0.60"></path></g></g><path d="M 22.9 0.0 L 189.2 0.0 C 195.8 0.0 199.1 0.0 202.7 1.1 C 206.6 2.5 209.6 5.6 211.0 9.5 C 212.2 13.0 212.2 16.4 212.2 23.0 L 212.2 45.1 C 212.2 51.6 212.2 55.0 211.0 58.5 C 209.6 62.4 206.6 65.5 202.7 66.9 C 199.1 68.0 195.8 68.0 189.1 68.0 L 22.9 68.0 C 16.4 68.0 13.0 68.0 9.5 66.9 C 5.6 65.5 2.5 62.4 1.1 58.5 C 0.0 55.0 0.0 51.6 0.0 45.0 L 0.0 22.9 C 0.0 16.4 0.0 13.0 1.1 9.5 C 2.5 5.6 5.6 2.5 9.5 1.1 C 13.0 0.0 16.4 0.0 23.0 0.0 Z M 22.9 0.0 " fill="none" stroke="#000000" stroke-width="20.00" transform="matrix(1.00, 0.00, 0.00, -1.00, 393.8, 417.0)"></path><g><clipPath id="clip-1169"><path d="M 393.8 349.0 L 605.9 349.0 L 605.9 417.0 L 393.8 417.0 Z M 393.8 349.0 "></path></clipPath><g clip-path="url(#clip-1169)"><text xml:space="preserve" font-family="HelveticaNeue" font-size="30.0" fill="#DEDEDE" transform="matrix(1.00, 0.00, -0.00, -1.00, 477.0, 373.0)">A</text><text xml:space="preserve" font-family="HelveticaNeue" font-size="30.0" fill="#DEDEDE" transform="matrix(1.00, 0.00, -0.00, -1.00, 496.4, 373.0)">P</text><text xml:space="preserve" font-family="HelveticaNeue" font-size="30.0" fill="#DEDEDE" transform="matrix(1.00, 0.00, -0.00, -1.00, 515.9, 373.0)">I</text></g></g></g></svg>